<svg xmlns="http://www.w3.org/2000/svg" width="499.578" height="352.064" viewBox="0 0 499.578 352.064">
  <g id="Group_3454" data-name="Group 3454" transform="translate(5715 -2247)">
    <circle id="Ellipse_378" data-name="Ellipse 378" cx="27.206" cy="27.206" r="27.206" transform="translate(-5487.062 2543.905)" fill="#17b978"/>
    <path id="Path_752" data-name="Path 752" d="M645.86,521.318c15.22-4.571,31.4-9.338,43.473-20.2,10.787-9.71,18.069-24.538,13.6-39.1-4.459-14.533-17.817-24.223-31.608-29.043a129.678,129.678,0,0,0-24.185-5.442c-8.892-1.3-17.824-2.356-26.751-3.377q-54.222-6.2-108.852-7.577c-17.971-.453-35.938-.442-53.912-.181-16.051.233-32.956.227-47.847-6.595-11.58-5.305-22.089-14.957-25.316-27.64-3.724-14.641,3.145-29.551,13-40.154a105.256,105.256,0,0,1,17.528-14.619c6.794-4.693,13.825-9.053,21.009-13.123a292.556,292.556,0,0,1,44.22-20.386c7.538-2.741,15.188-5.106,22.905-7.288a195.983,195.983,0,0,0,19.35-6.2c12.174-4.852,23.753-13.071,26.848-26.545,2.934-12.77-2.013-26.633-10.684-36.12-10.033-10.975-25.16-15.787-39.662-16.565-16.281-.874-32.188,3.2-47.491,8.372-16.322,5.516-32.292,11.858-48.959,16.326a329.408,329.408,0,0,1-50.388,9.366c-8.329.887-16.91,1.888-25.288,1.209-7.022-.569-14.008-2.634-19.183-7.618-4.437-4.273-7.081-10.146-6.172-16.343.165-1.126,1.875-.647,1.711.472-1.106,7.544,4.022,14.5,10.341,18.056,7.3,4.115,16.19,4.121,24.321,3.65a318.1,318.1,0,0,0,52.351-7.568c16.911-3.862,33.218-9.384,49.506-15.282,15.47-5.6,31.285-11.069,47.812-12.283,14.34-1.053,29.425,1.036,41.918,8.53a46.372,46.372,0,0,1,21.626,30.174c2.514,12.317-.968,24.714-10.291,33.308-9.653,8.9-22.889,12.7-35.224,16.208a322.717,322.717,0,0,0-45.773,16.385,287.341,287.341,0,0,0-43.057,24.207c-13.158,8.991-26.142,20.3-30.3,36.345a33.482,33.482,0,0,0,1.663,22.454,41.033,41.033,0,0,0,13.167,15.625c13.2,9.714,29.84,11.709,45.786,11.907,17.91.223,35.82-.382,53.736-.088q54.767.9,109.31,6.667,13.667,1.447,27.3,3.2a246.846,246.846,0,0,1,24.414,3.96c14.291,3.317,28.2,9.695,37.079,21.811a34.491,34.491,0,0,1,2.938,37.715c-6.821,13.42-19.6,21.956-33.164,27.564a235.316,235.316,0,0,1-22.328,7.539.888.888,0,0,1-.472-1.711Z" transform="translate(-5943.182 2075.471)" fill="#f2f2f2"/>
    <circle id="Ellipse_379" data-name="Ellipse 379" cx="14.195" cy="14.195" r="14.195" transform="translate(-5654.736 2273.911)" fill="#f2f2f2"/>
    <circle id="Ellipse_380" data-name="Ellipse 380" cx="14.195" cy="14.195" r="14.195" transform="translate(-5556.26 2300.822)" fill="#f2f2f2"/>
    <circle id="Ellipse_381" data-name="Ellipse 381" cx="14.195" cy="14.195" r="14.195" transform="translate(-5472.867 2247)" fill="#f2f2f2"/>
    <circle id="Ellipse_382" data-name="Ellipse 382" cx="14.195" cy="14.195" r="14.195" transform="translate(-5420.819 2307.327)" fill="#f2f2f2"/>
    <circle id="Ellipse_383" data-name="Ellipse 383" cx="14.195" cy="14.195" r="14.195" transform="translate(-5491.202 2377.118)" fill="#f2f2f2"/>
    <circle id="Ellipse_384" data-name="Ellipse 384" cx="14.195" cy="14.195" r="14.195" transform="translate(-5580.51 2410.83)" fill="#f2f2f2"/>
    <circle id="Ellipse_385" data-name="Ellipse 385" cx="14.195" cy="14.195" r="14.195" transform="translate(-5485.878 2463.468)" fill="#f2f2f2"/>
    <circle id="Ellipse_386" data-name="Ellipse 386" cx="14.195" cy="14.195" r="14.195" transform="translate(-5384.149 2493.041)" fill="#f2f2f2"/>
    <circle id="Ellipse_387" data-name="Ellipse 387" cx="14.195" cy="14.195" r="14.195" transform="translate(-5265.271 2486.535)" fill="#f2f2f2"/>
    <path id="Path_753" data-name="Path 753" d="M550.284,220.372a78.731,78.731,0,0,0-77.939,77.37c-.006.393-.008,3.153-.008,6.763a19.96,19.96,0,0,0,19.957,19.959h0a19.971,19.971,0,0,0,19.968-19.985c0-2.46,0-4.16,0-4.264a37.853,37.853,0,1,1,58.269,31.867l.007.008s-28.406,18.287-37.066,43.374l.007,0a55.6,55.6,0,0,0-2.291,15.832c0,2.2.13,21.482.38,37.129a20.574,20.574,0,0,0,20.576,20.241h0a20.58,20.58,0,0,0,20.579-20.707c-.087-14.33-.134-31.016-.134-32.227,0-15.4,14.86-30.752,27.067-40.761a82.094,82.094,0,0,0,28.234-44.949,51.308,51.308,0,0,0,1.478-11.139,78.514,78.514,0,0,0-79.082-78.512Z" transform="translate(-6013.054 2066.849)" fill="#17b978"/>
    <path id="Path_754" data-name="Path 754" d="M676.538,746.658H178.367a.7.7,0,0,1,0-1.408h498.17a.7.7,0,1,1,0,1.408Z" transform="translate(-5892.662 1852.406)" fill="#3f3d56"/>
    <circle id="Ellipse_388" data-name="Ellipse 388" cx="17.743" cy="17.743" r="17.743" transform="translate(-5361.05 2372.976)" fill="#2f2e41"/>
    <path id="Path_755" data-name="Path 755" d="M565.62,562.809h-7.25l-3.45-27.968h10.7Z" transform="translate(-5941.715 2028.488)" fill="#ffdfe3"/>
    <path id="Path_756" data-name="Path 756" d="M545.914,578.626H559.9v8.8H537.109a8.8,8.8,0,0,1,8.8-8.8Z" transform="translate(-5934.439 2010.599)" fill="#323232"/>
    <path id="Path_757" data-name="Path 757" d="M660.62,562.809h-7.25l-3.45-27.968h10.7Z" transform="translate(-5980.528 2028.488)" fill="#ffdfe3"/>
    <path id="Path_758" data-name="Path 758" d="M640.914,578.626H654.9v8.8H632.109A8.8,8.8,0,0,1,640.914,578.626Z" transform="translate(-5973.252 2010.599)" fill="#323232"/>
    <circle id="Ellipse_389" data-name="Ellipse 389" cx="14.526" cy="14.526" r="14.526" transform="translate(-5360.531 2379.512)" fill="#ffdfe3"/>
    <path id="Path_759" data-name="Path 759" d="M780.314,476.139l6.5-14.934a18.561,18.561,0,0,0-4.11-21.055,18.853,18.853,0,0,0-1.816-1.579,18.3,18.3,0,0,0-11.231-3.886,19.031,19.031,0,0,0-7.925,1.763c-.213.095-.42.2-.633.3-.408.2-.81.408-1.2.627a18.736,18.736,0,0,0-9.286,14.124l-2.869,24.036c-.721,1.887-26.461,70.021-17.459,122.039a2.642,2.642,0,0,0,2.259,2.171l9.126,1.242a2.659,2.659,0,0,0,2.963-2.088l15.313-72.99a2.072,2.072,0,0,1,4.022-.136L785.6,602.525a2.645,2.645,0,0,0,2.549,1.94,3.039,3.039,0,0,0,.515-.047l11.148-2.147a2.645,2.645,0,0,0,2.147-2.845C800.322,581.156,791.616,489.642,780.314,476.139Z" transform="translate(-6117.66 1979.289)" fill="#323232"/>
    <path id="Path_760" data-name="Path 760" d="M706.074,417.741a5.947,5.947,0,0,0,6.266,6.626l8.12,19.513,6.142-9.1-8.653-17.134a5.98,5.98,0,0,0-11.875.1Z" transform="translate(-6108.532 1988.387)" fill="#ffdfe3"/>
    <path id="Path_761" data-name="Path 761" d="M795.542,521.464a5.948,5.948,0,0,0,4.984-7.637l17.084-12.443-10.285-3.852-14.646,12.407a5.98,5.98,0,0,0,2.864,11.525Z" transform="translate(-6142.352 1953.613)" fill="#ffdfe3"/>
    <path id="Path_762" data-name="Path 762" d="M738.6,467.5a10.089,10.089,0,0,1-1.951-.192,9.644,9.644,0,0,1-7.066-5.687L718.2,447.75a2.662,2.662,0,0,1,.657-3.951l8.094-5.01a2.662,2.662,0,0,1,3.676.881l8.018,13.209L754,441.532a5.75,5.75,0,0,1,6.689,9.2l-15.325,13.98A9.612,9.612,0,0,1,738.6,467.5Z" transform="translate(-6113.258 1977.775)" fill="#323232"/>
    <path id="Path_763" data-name="Path 763" d="M816.443,491.359h-.062a2.666,2.666,0,0,1-1.958-.929l-7.2-8.395a2.661,2.661,0,0,1,.544-3.947l13.474-8.983-12.207-14.675a5.75,5.75,0,0,1,8.805-7.205l14.835,14.5a9.773,9.773,0,0,1-2.174,15.934L818.38,490.523A2.666,2.666,0,0,1,816.443,491.359Z" transform="translate(-6149.613 1974.779)" fill="#323232"/>
    <path id="Path_764" data-name="Path 764" d="M789.756,454.9a2.728,2.728,0,0,1-.345-.022,2.638,2.638,0,0,1-2.2-1.815l-5.407-16.578a1.823,1.823,0,0,1,.943-2.2l.176-.083c.159-.076.317-.15.478-.222a19.264,19.264,0,0,1,8.045-1.788,18.529,18.529,0,0,1,10.15,3.05,1.851,1.851,0,0,1,.533,2.54L791.99,453.666a2.635,2.635,0,0,1-2.234,1.23Z" transform="translate(-6139.454 1980.31)" fill="#e6e6e6"/>
    <circle id="Ellipse_390" data-name="Ellipse 390" cx="5.806" cy="5.806" r="5.806" transform="translate(-5335.125 2371.185)" fill="#2f2e41"/>
    <path id="Path_765" data-name="Path 765" d="M785.489,361.365h0a15.377,15.377,0,0,0-15.377,15.378v6.506h8l3.827-6.506,1.148,6.506h24.284l-6.506-6.506a15.378,15.378,0,0,0-15.378-15.378Z" transform="translate(-6134.71 2009.244)" fill="#2f2e41"/>
    <path id="Path_766" data-name="Path 766" d="M834.809,361.126a8.96,8.96,0,0,1,9.747-6.148c3.7.619,6.626,3.593,8.369,6.915s2.548,7.04,3.72,10.6,2.834,7.147,5.792,9.454,7.5,2.933,10.4.56a11.9,11.9,0,0,1-22.166,4.247c-1.533-2.728-1.929-5.924-2.383-9.02s-1.045-6.3-2.876-8.836-5.257-4.2-8.164-3.039Z" transform="translate(-6161.144 2011.888)" fill="#2f2e41"/>
    <path id="Path_767" data-name="Path 767" d="M497.737,337.473h0a19.96,19.96,0,0,1-19.958-19.957c0-3.612,0-6.372.008-6.765a77.779,77.779,0,0,1,9.084-35.433,77.954,77.954,0,0,0-15,44.9c-.005.393-.008,3.153-.008,6.763a19.96,19.96,0,0,0,19.957,19.959h0a19.975,19.975,0,0,0,19.215-14.544A19.886,19.886,0,0,1,497.737,337.473Z" transform="translate(-6012.86 2044.399)" fill="#3f3d56"/>
    <path id="Path_768" data-name="Path 768" d="M585.265,284.911a37.855,37.855,0,0,1,32.919,52.883,37.851,37.851,0,1,0-63.536-39.618A37.776,37.776,0,0,1,585.265,284.911Z" transform="translate(-6046.682 2044.364)" fill="#3f3d56"/>
    <path id="Path_769" data-name="Path 769" d="M598.235,534.652h0a20.575,20.575,0,0,1-20.576-20.245c-.25-15.643-.38-34.922-.38-37.125a55.594,55.594,0,0,1,2.291-15.832l-.007,0a56.2,56.2,0,0,1,3.249-7.512,65.083,65.083,0,0,0-9.164,16.975l.007,0a55.6,55.6,0,0,0-2.291,15.832c0,2.2.13,21.482.38,37.129a20.575,20.575,0,0,0,20.576,20.241h0A20.583,20.583,0,0,0,612.075,529.3,20.5,20.5,0,0,1,598.235,534.652Z" transform="translate(-6053.511 1971.424)" fill="#3f3d56"/>
    <path id="Path_770" data-name="Path 770" d="M126.54,563.265h7.251l3.45-27.968h-10.7Z" transform="translate(-5766.698 2028.302)" fill="#ffb8b8"/>
    <path id="Path_771" data-name="Path 771" d="M0,0H22.789V8.8H8.8A8.8,8.8,0,0,1,0,0Z" transform="translate(-5618.925 2598.299) rotate(179.997)" fill="#2f2e41"/>
    <path id="Path_772" data-name="Path 772" d="M82.54,563.265H89.79L93.24,535.3h-10.7Z" transform="translate(-5748.721 2028.302)" fill="#ffb8b8"/>
    <path id="Path_773" data-name="Path 773" d="M0,0H22.789V8.8H8.8A8.8,8.8,0,0,1,0,0Z" transform="translate(-5644.948 2598.299) rotate(179.997)" fill="#2f2e41"/>
    <path id="Path_774" data-name="Path 774" d="M264.215,653.382l-7.083-.372a2.764,2.764,0,0,1-2.613-2.938l8.465-93.724,38.983,10.519,3.756-1.025-11.745,82.971a2.778,2.778,0,0,1-2.578,2.333l-7.635.356a2.765,2.765,0,0,1-2.917-2.836l1.383-49.8a.922.922,0,0,0-1.824-.213l-13.341,52.527a2.748,2.748,0,0,1-2.7,2.2C264.315,653.386,264.266,653.385,264.215,653.382Z" transform="translate(-5924.06 1929.583)" fill="#2f2e41"/>
    <circle id="Ellipse_391" data-name="Ellipse 391" cx="14.526" cy="14.526" r="14.526" transform="translate(-5653.382 2380.192)" fill="#ffb8b8"/>
    <path id="Path_775" data-name="Path 775" d="M265.494,458.389l1.6,34.462.577,12.538a2.746,2.746,0,0,0,1.818,2.47l37.46,13.57a2.645,2.645,0,0,0,.946.166,2.746,2.746,0,0,0,2.758-2.832L309.116,456.8a21.842,21.842,0,0,0-18.183-21.1c-.362-.055-.731-.111-1.1-.16a21.44,21.44,0,0,0-17.249,5.584,22.023,22.023,0,0,0-7.089,17.268Z" transform="translate(-5928.536 1979.008)" fill="#ccc"/>
    <path id="Path_776" data-name="Path 776" d="M354.887,550.887a5.952,5.952,0,0,1-3.175-9.006l-12.7-16.892,10.962-.678,10.382,16.145a5.98,5.98,0,0,1-5.466,10.431Z" transform="translate(-5958.581 1942.672)" fill="#ffb8b8"/>
    <path id="Path_777" data-name="Path 777" d="M336.1,509.26a2.747,2.747,0,0,1-1.5-1.49l-19.138-45.6a7.371,7.371,0,1,1,13.594-5.706l19.138,45.6a2.767,2.767,0,0,1-1.479,3.619l-8.5,3.566a2.745,2.745,0,0,1-2.116.01Z" transform="translate(-5948.723 1972.237)" fill="#ccc"/>
    <path id="Path_778" data-name="Path 778" d="M298.282,520.749l18.381-35.2a2.885,2.885,0,0,1,3.889-1.22l26.681,13.934a2.885,2.885,0,0,1,1.22,3.889l-18.382,35.2a2.885,2.885,0,0,1-3.889,1.221L299.5,524.638a2.885,2.885,0,0,1-1.22-3.889Z" transform="translate(-5941.809 1959.139)" fill="#3f3d56"/>
    <path id="Path_779" data-name="Path 779" d="M300.825,509.05a5.952,5.952,0,0,0-9.177-2.638l-17.612-11.684L274,505.711l16.729,9.411a5.98,5.98,0,0,0,10.09-6.073Z" transform="translate(-5932.023 1954.758)" fill="#ffb8b8"/>
    <path id="Path_780" data-name="Path 780" d="M266.978,490.812l-14.394-11.4a10.151,10.151,0,0,1-4.627-16.049l13.069-17.128a5.971,5.971,0,0,1,10.131,6.083l-10.341,16.915,15.2,7.208a2.764,2.764,0,0,1,1.152,3.974l-6.134,9.708a2.769,2.769,0,0,1-1.873,1.249l-.046.007A2.777,2.777,0,0,1,266.978,490.812Z" transform="translate(-5920.445 1975.465)" fill="#ccc"/>
    <path id="Path_781" data-name="Path 781" d="M282.912,397.72a1.262,1.262,0,0,1,1.1-1.667,2.916,2.916,0,0,1,2.056,1.014,8.177,8.177,0,0,0,1.816,1.56,1.563,1.563,0,0,0,2.056-.372,2.86,2.86,0,0,0-.109-2.22,21.828,21.828,0,0,1-.964-5.778,10.176,10.176,0,0,1,1.455-6.18c1.564-2.2,4.36-3.039,7.006-2.979s5.249.878,7.87,1.394a2.643,2.643,0,0,0,2.574-.432c.644-.746.407-1.953.134-2.959-.71-2.613-1.464-5.314-3.114-7.424a11.177,11.177,0,0,0-7.133-4.016,17.116,17.116,0,0,0-7.962.9,21.35,21.35,0,0,0-10.458,7.286,17.291,17.291,0,0,0-3.3,12.775,15.772,15.772,0,0,0,5.847,9.969Z" transform="translate(-5932.744 2006.725)" fill="#2f2e41"/>
    <path id="Path_782" data-name="Path 782" d="M584.234,705.942a27.2,27.2,0,0,1-10.1-42.282,27.2,27.2,0,1,0,37.006,39.31A27.188,27.188,0,0,1,584.234,705.942Z" transform="translate(-6050.083 1885.74)" fill="#3f3d56"/>
  </g>
</svg>
