<svg xmlns="http://www.w3.org/2000/svg" width="552" height="385.168" viewBox="0 0 552 385.168">
  <g id="Group_3404" data-name="Group 3404" transform="translate(6713.236 -1932.658)">
    <g id="g18" transform="translate(-6713.236 1932.658)">
      <path id="path20" d="M606.77-2197.233h-482.7c-1.458-.8-86.68-48.065-24.811-91.692,42.191-29.755,11.833-51.361,7.244-64.981-5.269-15.64-16.187-91.323,40.317-100.168,109.886-17.2,18.636-102.588,118.559-119.954a421.978,421.978,0,0,1,71.1-5.972c74.44,0,144.162,19.72,136.05,64.769-7.74,42.973,49.8,25.467,85.983,41.529,55.414,24.6-1.707,100.39,34.265,122.305,33.419,20.36,54.007,120.788,14,154.164" transform="translate(-76.764 2580)" fill="#fff"/>
    </g>
    <g id="g22" transform="translate(-6308.065 2060.522)">
      <path id="path24" d="M2696.546-1775.625s-7.9,17.2-13.217,24.47-10.385,14.215-14.624,34.384-3.516,22.195-4.68,27.4-8.716,26.315-8.761,30.186-15.271,25.9-19.174,36.215-10.81,25.042-10.421,32.54l1.735-.441a80.671,80.671,0,0,1,13.451-35.157c12.041-17.672,10.318-21.008,23.991-30.088s22.5-34.155,22.5-34.155,13.907-27.24,13.262-41.4,3.042-26.931-4.063-43.957" transform="translate(-2625.652 1775.625)" fill="#256653"/>
    </g>
    <g id="g26" transform="translate(-6317.479 2034.063)">
      <path id="path28" d="M2628.232-1942.073s-.461,11.3-4.1,18.015-6.787,10.789-7.447,18.052-2.951,25.988-13.116,35.129-11.461,36.532-19.2,44.817-8.747,14.243-7.317,28.454,6.28,33.905-4.942,59.612l-2.536-6.394s8.029-21.148,6.087-33.532-8.709-31.094-6.234-40.068-6.729-10.726-1.185-24.3,3.266-18.288,10.813-30.024c0,0,.772-.55,2.755-10.478s17.981-28.128,25.353-34.338,17.992-16.163,21.073-24.944" transform="translate(-2566.429 1942.073)" fill="#256653"/>
    </g>
    <g id="g30" transform="translate(-6311.274 2090.015)">
      <path id="path32" d="M2631.038-1590.09s-8.828,15.113-8.951,24.839.927,17.64-3.539,30.958,4.4,21.741,1.843,29.1-2.751,16.061-2.675,22.663-10.111,28.456-11.66,39.52.43,11.1.43,11.1,1.69-14.607,4.036-19.437,9.471-21.485,11.135-27.928,6.178-10.578,10.074-21.489,9.429-20.1,9.007-35.588,5.806-31.826-9.7-53.736" transform="translate(-2605.463 1590.09)" fill="#3c8f7c"/>
    </g>
    <g id="g34" transform="translate(-6305.727 2163.884)">
      <path id="path36" d="M2641.706-1051.219s4.113-19.179,21.469-21.095,27.556,1.518,39.819-12.494,19.382-36.249,23.3-40.077c0,0-6.161-3.171-16.4,6.405s-17.437,16.841-23.368,22.416-10.742,1.941-17,5.617c-5.249,3.079-12.033,11.983-15.021,16.646a20.95,20.95,0,0,1-3.446,4.125c-1.2,1.111-2.634,2.471-3.552,3.472-1.837,2-7.138,15.057-7.138,15.057l1.344-.07" transform="translate(-2640.362 1125.389)" fill="#3c8f7c"/>
    </g>
    <g id="g38" transform="translate(-6345.013 2131.346)">
      <path id="path40" d="M2427.728-1226.754s6.12-23.456,2.02-34.935-16.922-19.972-16.408-27.182,8.752-26.7,2.035-41.207c0,0-2.549,12.941-5.065,15.82s-19.79,14.488-16.729,29.823,19.854,18.916,23.99,23.431,9.718,4.508,9.754,7.509,1.124,13.914-.731,24.683l1.134,2.058" transform="translate(-2393.219 1330.077)" fill="#3c8f7c"/>
    </g>
    <g id="g42" transform="translate(-6311.272 2090.013)">
      <path id="path44" d="M2612.933-1461.137l8.6-24.755s5.05-19.912,7.973-36.516,1.551-67.688,1.551-67.688-8.828,15.113-8.952,24.84.928,17.64-3.537,30.958,4.4,21.742,1.84,29.1-2.75,16.061-2.674,22.664-10.111,28.456-11.661,39.519c-.847,6.062-.639,8.811-.273,10.059-1.377-9.677,7.139-28.176,7.139-28.176" transform="translate(-2605.475 1590.097)" fill="#327f6b"/>
    </g>
    <g id="g46" transform="translate(-6305.727 2164.387)">
      <path id="path48" d="M2684.6-1082.383c-7.666,1.53-14.521,1.009-23.623,7.783a76.089,76.089,0,0,0-14.453,14.007s-4.089,7.31-5.782,11.165c-.242.589-.385.941-.385.941l1.343-.07s4.113-19.179,21.47-21.095,27.556,1.517,39.819-12.494,19.382-36.249,23.3-40.077c0,0-13.041,10.146-21.1,19.126s-12.92,19.181-20.589,20.713" transform="translate(-2640.362 1122.223)" fill="#327f6b"/>
    </g>
    <g id="g50" transform="translate(-6345.012 2131.346)">
      <path id="path52" d="M2410.312-1314.256c-2.518,2.88-19.791,14.489-16.728,29.823s19.853,18.916,23.987,23.431,9.721,4.508,9.754,7.509,1.125,13.914-.73,24.683l.5.9a137.524,137.524,0,0,0,2.572-15.464c.669-7.891-.61-11.159-3.146-17.551s-18.3-19.417-22.25-26.262,7.616-18.291,10.182-23.816.927-19.071.927-19.071-2.551,12.941-5.067,15.82" transform="translate(-2393.221 1330.075)" fill="#327f6b"/>
    </g>
    <g id="g54" transform="translate(-6316.457 2210.995)">
      <path id="path56" d="M2602.366-816.676l2.7-6.522a9.208,9.208,0,0,1,11.964-5.114c11.38,4.966,16.325,18.789,11.049,30.876l-3.857,8.836a11.1,11.1,0,0,0,1.178,11.131,9.791,9.791,0,0,1,.971,9.807L2624.337-763a18.536,18.536,0,0,1-11.567,10.32,11.236,11.236,0,0,0-6.985,6.309l-2.877,6.6c-3.183,7.291-11.328,10.773-18.195,7.779l-3.917-1.711c-6.864-3-9.847-11.337-6.665-18.63,5.15-8.72,4.738-15.226,2.912-19.641a26.4,26.4,0,0,1,.253-20.6l.406-.932a26.218,26.218,0,0,1,16.017-14.5c3.111-.99,6.351-3.408,8.646-8.664" transform="translate(-2572.857 829.019)" fill="#50bfa5"/>
    </g>
    <g id="g58" transform="translate(-6335.529 2245.788)">
      <path id="path60" d="M2452.88-540.5c5.519-7.16,35.8-45.509,55.537-51.9,21.794-7.053,1.254,20.966,1.254,20.966s38.655-42.271,52.844-38.46c13,3.493,0,29.694,0,29.694s14.644-14.51,32.405-14.51c17.286,0-12.076,51.456-13.66,54.212H2452.88" transform="translate(-2452.88 610.141)" fill="#96d9c9"/>
    </g>
    <g id="g62" transform="translate(-6254.024 2218.096)">
      <path id="path64" d="M3000.607-769.977a254.739,254.739,0,0,0-33.912,81.182l-1.081-.29a256.37,256.37,0,0,1,33.778-80.5c3.665-5.725,7.623-12.52,14.486-14.754.131-.042.182.159.054.206-6.267,2.361-9.9,8.8-13.325,14.154" transform="translate(-2965.613 784.342)" fill="#3c8f7c"/>
    </g>
    <g id="g66" transform="translate(-6249.136 2249.141)">
      <path id="path68" d="M2996.367-523.519A318.426,318.426,0,0,1,3060.984-589c.259-.193.6.252.345.45a318.016,318.016,0,0,0-63.624,65.385l-1.339-.358" transform="translate(-2996.367 589.043)" fill="#3c8f7c"/>
    </g>
    <g id="g70" transform="translate(-6218.783 2212.158)">
      <path id="path72" d="M3188.508-816.691a11.238,11.238,0,0,1,2.419,4.205,8.7,8.7,0,0,1,.079,4.292,9.357,9.357,0,0,0,2.4-4.152c.775-2.476.233-5.907-.734-7.043-1.667-2.571-4.577-2.832-5.145-1.585-.6,1.238.161,2.923.98,4.283" transform="translate(-3187.313 821.698)" fill="#3c8f7c"/>
    </g>
    <g id="g74" transform="translate(-6222.259 2233.883)">
      <path id="path76" d="M3173.9-679.732a11.23,11.23,0,0,0-4.156-2.5,8.694,8.694,0,0,0-4.289-.161,9.34,9.34,0,0,1,4.2-2.317c2.488-.727,5.908-.117,7.025.871,2.538,1.717,2.741,4.633,1.485,5.174-1.25.574-2.919-.218-4.264-1.064" transform="translate(-3165.448 685.032)" fill="#3c8f7c"/>
    </g>
    <g id="g78" transform="translate(-6227.959 2243.532)">
      <path id="path80" d="M3138.034-619.027a11.177,11.177,0,0,0-4.154-2.5,8.681,8.681,0,0,0-4.289-.164,9.311,9.311,0,0,1,4.2-2.317c2.488-.727,5.911-.116,7.028.871,2.535,1.717,2.739,4.633,1.481,5.173-1.249.577-2.918-.218-4.264-1.064" transform="translate(-3129.588 624.327)" fill="#3c8f7c"/>
    </g>
    <g id="g82" transform="translate(-6207.622 2265.916)">
      <path id="path84" d="M3265.976-478.212a11.158,11.158,0,0,0-4.156-2.5,8.685,8.685,0,0,0-4.291-.163,9.361,9.361,0,0,1,4.2-2.317c2.489-.727,5.912-.116,7.027.871,2.538,1.716,2.741,4.633,1.484,5.173-1.253.576-2.92-.218-4.264-1.062" transform="translate(-3257.527 483.514)" fill="#3c8f7c"/>
    </g>
    <g id="g86" transform="translate(-6197.23 2256.761)">
      <path id="path88" d="M3331.351-535.8a11.245,11.245,0,0,0-4.158-2.5,8.675,8.675,0,0,0-4.291-.161,9.372,9.372,0,0,1,4.2-2.319c2.488-.725,5.907-.114,7.025.871,2.538,1.717,2.741,4.633,1.483,5.176-1.251.574-2.917-.218-4.261-1.064" transform="translate(-3322.901 541.105)" fill="#3c8f7c"/>
    </g>
    <g id="g90" transform="translate(-6227.297 2223.031)">
      <path id="path92" d="M3135.482-748.246a11.183,11.183,0,0,1,3.05,3.773,8.628,8.628,0,0,1,.754,4.224,9.359,9.359,0,0,0,1.716-4.478c.375-2.567-.7-5.869-1.834-6.839-2.051-2.277-4.968-2.073-5.33-.755-.394,1.318.62,2.861,1.644,4.076" transform="translate(-3133.75 753.3)" fill="#3c8f7c"/>
    </g>
    <g id="g94" transform="translate(-6236.623 2233.01)">
      <path id="path96" d="M3077.754-684.506c.707.375,3.173,1.053,4.414,2.9a7.5,7.5,0,0,1,1.488,4.392,12.389,12.389,0,0,0,1.676-5.738c.174-3.025-1.624-6.248-3.207-6.844-2.931-1.659-6.683-.18-6.99,1.45-.355,1.64,1.152,2.925,2.619,3.84" transform="translate(-3075.083 690.524)" fill="#3c8f7c"/>
    </g>
    <g id="g98" transform="translate(-6246.008 2249.327)">
      <path id="path100" d="M3019.275-581.6c.759.25,3.3.5,4.834,2.115a7.47,7.47,0,0,1,2.2,4.08,12.376,12.376,0,0,0,.687-5.937c-.334-3.012-2.648-5.888-4.31-6.21-3.169-1.14-6.618.948-6.645,2.6-.075,1.677,1.624,2.692,3.229,3.347" transform="translate(-3016.044 587.875)" fill="#3c8f7c"/>
    </g>
    <g id="g102" transform="translate(-6218.65 2262.33)">
      <path id="path104" d="M3190.139-501.255c.553.345,2.519,1.036,3.423,2.609a6.141,6.141,0,0,1,.961,3.656,10.126,10.126,0,0,0,1.688-4.569c.316-2.45-.961-5.176-2.216-5.752-2.291-1.515-5.427-.526-5.771.782-.379,1.314.771,2.446,1.915,3.275" transform="translate(-3188.15 506.076)" fill="#3c8f7c"/>
    </g>
    <g id="g106" transform="translate(-6207.947 2217.814)">
      <path id="path108" d="M3260.363-782.885a6.635,6.635,0,0,0-2.347-1.664,5.127,5.127,0,0,0-2.531-.282,5.5,5.5,0,0,1,2.586-1.187,5.429,5.429,0,0,1,4.118.822c1.426,1.125,1.416,2.859.648,3.124-.761.286-1.715-.256-2.474-.814" transform="translate(-3255.484 786.116)" fill="#3c8f7c"/>
    </g>
    <g id="g110" transform="translate(-6207.672 2211.442)">
      <path id="path112" d="M3258.656-823.646a6.694,6.694,0,0,1-.119,2.876,5.16,5.16,0,0,1-1.32,2.179,5.558,5.558,0,0,0,2.518-1.325,5.427,5.427,0,0,0,1.862-3.764c-.022-1.816-1.4-2.87-2.076-2.422-.7.43-.846,1.516-.865,2.456" transform="translate(-3257.215 826.205)" fill="#3c8f7c"/>
    </g>
    <g id="g114" transform="translate(-6186.179 2249.506)">
      <path id="path116" d="M3397.3-583.519a6.742,6.742,0,0,0-2.351-1.662,5.171,5.171,0,0,0-2.532-.284,5.56,5.56,0,0,1,2.586-1.187,5.439,5.439,0,0,1,4.117.822c1.427,1.128,1.417,2.861.651,3.126-.762.286-1.716-.256-2.471-.816" transform="translate(-3392.419 586.75)" fill="#3c8f7c"/>
    </g>
    <g id="g118" transform="translate(-6186.137 2242.978)">
      <path id="path120" d="M3393.706-625.161a6.575,6.575,0,0,1,.12,2.876,5.179,5.179,0,0,1-1.137,2.279,5.552,5.552,0,0,0,2.4-1.524,5.451,5.451,0,0,0,1.55-3.9c-.17-1.81-1.63-2.747-2.271-2.247-.657.487-.717,1.581-.663,2.52" transform="translate(-3392.687 627.815)" fill="#3c8f7c"/>
    </g>
    <g id="g122" transform="translate(-6245.155 2291.412)">
      <path id="path124" d="M3078.788-322.991c-16.126,1.768-31.146,8.887-45.606,15.828-9.752,4.682-9.26,6.015-11.246,6.712a.4.4,0,0,1-.485-.547c.762-1.513,2.768-2.537,4.16-3.408a54.34,54.34,0,0,1,5.038-2.745c3.682-1.787,7.456-3.393,11.207-5.023a162.525,162.525,0,0,1,23.453-8.548,82.308,82.308,0,0,1,13.47-2.4.066.066,0,0,1,.01.132" transform="translate(-3021.409 323.123)" fill="#3c8f7c"/>
    </g>
    <g id="g126" transform="translate(-6203.573 2282.331)">
      <path id="path128" d="M3284.261-376.039a10.443,10.443,0,0,1,.369,4.481A8.05,8.05,0,0,1,3283-367.93a8.662,8.662,0,0,0,3.651-2.535c1.626-1.768,2.523-4.858,2.164-6.191-.382-2.813-2.721-4.179-3.687-3.357-.991.8-1.017,2.512-.868,3.974" transform="translate(-3282.996 380.25)" fill="#3c8f7c"/>
    </g>
    <g id="g130" transform="translate(-6217.783 2287.418)">
      <path id="path132" d="M3194.863-344.035a10.357,10.357,0,0,1,.369,4.48,8.022,8.022,0,0,1-1.627,3.626,8.687,8.687,0,0,0,3.651-2.533c1.627-1.768,2.525-4.86,2.166-6.193-.385-2.812-2.724-4.179-3.688-3.357-.99.8-1.018,2.514-.87,3.976" transform="translate(-3193.601 348.248)" fill="#3c8f7c"/>
    </g>
    <g id="g134" transform="translate(-6232.219 2293.853)">
      <path id="path136" d="M3104.052-303.554a10.455,10.455,0,0,1,.367,4.48,8.018,8.018,0,0,1-1.627,3.626,8.661,8.661,0,0,0,3.649-2.533c1.627-1.768,2.525-4.86,2.163-6.193-.38-2.81-2.721-4.18-3.686-3.357-.99.8-1.017,2.514-.867,3.976" transform="translate(-3102.788 307.767)" fill="#3c8f7c"/>
    </g>
    <g id="g138" transform="translate(-6203.523 2294.171)">
      <path id="path140" d="M3288.762-300.12a9.6,9.6,0,0,0-2.227-3.508,7.447,7.447,0,0,0-3.224-1.766,8.015,8.015,0,0,1,4.1-.17c2.185.394,4.572,2.171,5.052,3.355,1.287,2.285.327,4.6-.843,4.532-1.176-.036-2.155-1.284-2.861-2.444" transform="translate(-3283.309 305.767)" fill="#3c8f7c"/>
    </g>
    <g id="g142" transform="translate(-6218.305 2299.402)">
      <path id="path144" d="M3195.779-267.213a9.641,9.641,0,0,0-2.229-3.508,7.444,7.444,0,0,0-3.226-1.765,8.032,8.032,0,0,1,4.105-.17c2.185.394,4.573,2.17,5.052,3.355,1.286,2.285.327,4.6-.844,4.532-1.175-.036-2.15-1.284-2.858-2.444" transform="translate(-3190.321 272.86)" fill="#3c8f7c"/>
    </g>
    <g id="g146" transform="translate(-6190.935 2291.19)">
      <path id="path148" d="M3366.619-321.277a6.126,6.126,0,0,0-1.862-1.907,4.734,4.734,0,0,0-2.257-.683,5.145,5.145,0,0,1,2.552-.648,5.042,5.042,0,0,1,3.617,1.439c1.11,1.265.814,2.844.07,2.957-.745.134-1.522-.521-2.121-1.157" transform="translate(-3362.5 324.52)" fill="#3c8f7c"/>
    </g>
    <g id="g150" transform="translate(-6190.681 2285.346)">
      <path id="path152" d="M3366.262-359.142a6.169,6.169,0,0,1-.589,2.6,4.751,4.751,0,0,1-1.57,1.761,5.117,5.117,0,0,0,2.517-.782,5.037,5.037,0,0,0,2.329-3.118c.285-1.659-.8-2.851-1.488-2.556-.7.276-1.023,1.24-1.2,2.094" transform="translate(-3364.1 361.281)" fill="#3c8f7c"/>
    </g>
    <path id="path154" d="M549.926-1433.037c-18.951-16.9-28.7-41.164-33.532-58.548a173.152,173.152,0,0,1-6.023-34.081l-1.03-.064a174.375,174.375,0,0,0,6.059,34.32c4.882,17.553,14.729,42.069,33.915,59.175l.613-.8" transform="translate(-7153.814 3625.975)" fill="#3c8f7c"/>
    <path id="path156" d="M483.137-1607.443a14.871,14.871,0,0,1-1.839,11.413,17.418,17.418,0,0,1-6.512-10.326,14.872,14.872,0,0,1,1.84-11.413,17.41,17.41,0,0,1,6.512,10.326" transform="translate(-7124.422 3703.384)" fill="#3c8f7c"/>
    <path id="path158" d="M435.73-1497.945a17.385,17.385,0,0,1,5.543,10.871,15.136,15.136,0,0,1-10.793-4.33,17.389,17.389,0,0,1-5.543-10.871,15.126,15.126,0,0,1,10.793,4.33" transform="translate(-7082.829 3606.259)" fill="#3c8f7c"/>
    <path id="path160" d="M425.276-1396.853a16.633,16.633,0,0,1,9.355,7.53,12.956,12.956,0,0,1-10.947,1.164,16.628,16.628,0,0,1-9.355-7.533,12.956,12.956,0,0,1,10.947-1.161" transform="translate(-7073.905 3518.166)" fill="#3c8f7c"/>
    <path id="path162" d="M475.726-1297.167a12.2,12.2,0,0,1,7.239,6.882,9.2,9.2,0,0,1-8.842,1.81,12.2,12.2,0,0,1-7.24-6.882,9.2,9.2,0,0,1,8.842-1.81" transform="translate(-7118.107 3434.117)" fill="#3c8f7c"/>
    <path id="path164" d="M538.244-1452.932a11.109,11.109,0,0,1,9.122-3.283,12.465,12.465,0,0,1-3.533,9.457,11.122,11.122,0,0,1-9.122,3.283,12.463,12.463,0,0,1,3.534-9.457" transform="translate(-7175.136 3567.564)" fill="#3c8f7c"/>
    <path id="path166" d="M556.689-1382.432a11.118,11.118,0,0,1,9.123-3.285,12.459,12.459,0,0,1-3.533,9.457,11.116,11.116,0,0,1-9.123,3.285,12.46,12.46,0,0,1,3.533-9.457" transform="translate(-7190.649 3508.273)" fill="#3c8f7c"/>
    <path id="path168" d="M379.8-1003.025c-17.5-2.55-32.476-12.918-41.958-21.167a120.51,120.51,0,0,1-16.579-17.5l-.623.358a121.438,121.438,0,0,0,16.691,17.623c9.574,8.332,24.705,18.8,42.422,21.387l.047-.7" transform="translate(-6995.11 3218.879)" fill="#50bfa5"/>
    <path id="path170" d="M280.913-1081.425a10.356,10.356,0,0,1,3.31,7.34,12.135,12.135,0,0,1-7.748-3.5,10.362,10.362,0,0,1-3.31-7.342,12.138,12.138,0,0,1,7.748,3.506" transform="translate(-6955.181 3255.246)" fill="#50bfa5"/>
    <path id="path172" d="M288.537-1004.5a12.106,12.106,0,0,1,7.394,4.19A10.532,10.532,0,0,1,288-998.688a12.108,12.108,0,0,1-7.394-4.192,10.541,10.541,0,0,1,7.935-1.624" transform="translate(-6961.436 3187.747)" fill="#50bfa5"/>
    <path id="path174" d="M324.988-954.681a11.585,11.585,0,0,1,8.328.788,9.029,9.029,0,0,1-5.918,4.877,11.585,11.585,0,0,1-8.328-.788,9.029,9.029,0,0,1,5.918-4.877" transform="translate(-6993.789 3146.067)" fill="#50bfa5"/>
    <path id="path176" d="M393.378-911.719a8.5,8.5,0,0,1,6.849,1.221,6.4,6.4,0,0,1-4.445,4.445,8.5,8.5,0,0,1-6.849-1.221,6.406,6.406,0,0,1,4.446-4.445" transform="translate(-7052.546 3109.799)" fill="#50bfa5"/>
    <path id="path178" d="M382.224-1033.749a7.738,7.738,0,0,1,4.043-5.409,8.679,8.679,0,0,1,1.575,6.852,7.743,7.743,0,0,1-4.043,5.409,8.678,8.678,0,0,1-1.575-6.852" transform="translate(-7046.767 3216.749)" fill="#50bfa5"/>
    <path id="path180" d="M420-999.853a7.747,7.747,0,0,1,4.043-5.411,8.685,8.685,0,0,1,1.575,6.854A7.742,7.742,0,0,1,421.575-993,8.681,8.681,0,0,1,420-999.853" transform="translate(-7078.537 3188.243)" fill="#50bfa5"/>
    <path id="path182" d="M303.13-539.918c-20.187,7.664-42.408,3.616-57.495-1.13A144.128,144.128,0,0,1,217.4-553.332l-.447.854A144.877,144.877,0,0,0,245.382-540.1c15.235,4.794,37.685,8.881,58.122,1.121l-.374-.939" transform="translate(-6907.901 2808.15)" fill="#96d9c9"/>
    <path id="path184" d="M149.255-584.166a14.578,14.578,0,0,1,7.962,7.437,12.685,12.685,0,0,1-10.373.316,14.577,14.577,0,0,1-7.962-7.437,12.686,12.686,0,0,1,10.373-.316" transform="translate(-6842.244 2834.883)" fill="#96d9c9"/>
    <path id="path186" d="M209.592-511.618a12.912,12.912,0,0,1,10.41.8,12.411,12.411,0,0,1-7.473,7.079,12.921,12.921,0,0,1-10.41-.8,12.412,12.412,0,0,1,7.473-7.079" transform="translate(-6895.429 2773.686)" fill="#96d9c9"/>
    <path id="path188" d="M289.536-479.7a12.246,12.246,0,0,1,9.349-4.2,13.39,13.39,0,0,1-3.359,10.027,12.246,12.246,0,0,1-9.349,4.2,13.394,13.394,0,0,1,3.359-10.027" transform="translate(-6966.085 2749.759)" fill="#96d9c9"/>
    <path id="path190" d="M371.279-453.76a12.251,12.251,0,0,1,9.349-4.2,13.4,13.4,0,0,1-3.358,10.027,12.261,12.261,0,0,1-9.349,4.2,13.4,13.4,0,0,1,3.359-10.029" transform="translate(-7034.835 2727.937)" fill="#96d9c9"/>
    <path id="path192" d="M296.36-566.133a14.251,14.251,0,0,1-2.995-9.6,12.373,12.373,0,0,1,8.188,4.964,14.251,14.251,0,0,1,2.994,9.6,12.373,12.373,0,0,1-8.188-4.964" transform="translate(-6972.142 2826.989)" fill="#96d9c9"/>
    <path id="path194" d="M380.569-539.369a14.3,14.3,0,0,1-3.142-9.563,12.316,12.316,0,0,1,8.25,4.828,14.3,14.3,0,0,1,3.143,9.565,12.311,12.311,0,0,1-8.251-4.83" transform="translate(-7042.852 2804.449)" fill="#96d9c9"/>
    <path id="path196" d="M494.674-440.329a5.03,5.03,0,0,1,3.173-3,5.764,5.764,0,0,1,.186,4.58,5.03,5.03,0,0,1-3.173,3,5.764,5.764,0,0,1-.186-4.58" transform="translate(-7141.153 2715.636)" fill="#96d9c9"/>
    <path id="path198" d="M360.331-1129.238s25.72-101.721,17.191-111.942c-11.787-14.126-21.51,32.733-22.464,28.753-9.01-37.587-11.41-85.679-40.475-90.768-16.522-2.9,3.817,35.762,2.593,46.217s-31-24.257-49.091-42.442-27.437-6.672-16.006,16.195c11.055,22.112,46.817,46.276,39.445,49.144s-52.124-25.69-57.6-13.482c-6.72,14.968,60.412,35.336,54.09,38.7s-38.406-7.713-37.53,3.733,44.007,11.019,43.27,16.055c-1.193,8.151-29.72-10.3-30.974.979-1.282,11.536,37.53,9.432,36.857,18.431-.386,5.171-8.714-2.63-9.942,4.533-2.8,16.33,48.366,36.226,48.366,36.226l22.273-.331" transform="translate(-6921.776 3443.185)" fill="#3c8f7c"/>
    <path id="path200" d="M622.937-466.917s-24.477-37.529-36.256-44.615c-12.55-7.55-3,15.055-3,15.055S558.039-527,550.909-520.8s-.658,13.382-.658,13.382-23.025-6.823-27.163,1.628c-6.359,12.988,31.548,23.757,31.548,23.757s-16.273-.174-13.279,8.594c4.515,13.223,81.58,6.517,81.58,6.517" transform="translate(-7164.771 2781.485)" fill="#50bfa5"/>
    <path id="path202" d="M526.892-508.094c4.138-8.45,27.163-1.628,27.163-1.628s-6.471-7.181.658-13.382,27.646,12.361,27.646,12.361-2.15-15.307,13.3-1.823c11.035,9.631,31.083,43.341,31.083,43.341l-99.85-38.869" transform="translate(-7168.576 2783.793)" fill="#96d9c9"/>
    <path id="path204" d="M817.76-1505.249l1.1-.75c-19.929-30.181-26.012-66.015-27.606-90.762a240.817,240.817,0,0,1,1.338-47.012l-1.361-.4a242.366,242.366,0,0,0-1.354,47.308c1.6,24.957,7.744,61.108,27.886,91.612" transform="translate(-7389.306 3725.587)" fill="#96d9c9"/>
    <path id="path206" d="M775.971-1757.248c.044,6.062-2.06,11.074-5.418,14.082a27.017,27.017,0,0,1-5.635-16.252c-.043-6.064,2.06-11.076,5.418-14.084a27.015,27.015,0,0,1,5.635,16.254" transform="translate(-7368.764 3834.362)" fill="#96d9c9"/>
    <path id="path208" d="M698.456-1639.892a26.409,26.409,0,0,1,4.242,16.545c-4.663-1.327-9.357-4.915-12.754-10.275a26.412,26.412,0,0,1-4.242-16.547c4.663,1.327,9.357,4.915,12.754,10.277" transform="translate(-7302.043 3730.634)" fill="#96d9c9"/>
    <path id="path210" d="M656-1502.535a26.524,26.524,0,0,1,10.045,13.83c-4.3,1.2-9.529.216-14.419-3.185a26.526,26.526,0,0,1-10.045-13.83c4.3-1.2,9.529-.216,14.419,3.186" transform="translate(-7265.037 3609.558)" fill="#96d9c9"/>
    <path id="path212" d="M740.215-1310.676a11.066,11.066,0,0,1,4.584,5.5,7.1,7.1,0,0,1-6.085-.86,11.065,11.065,0,0,1-4.584-5.5,7.1,7.1,0,0,1,6.085.861" transform="translate(-7342.872 3446.126)" fill="#96d9c9"/>
    <path id="path214" d="M751.119-1244.429a11.073,11.073,0,0,1,4.584,5.506,7.113,7.113,0,0,1-6.085-.86,11.062,11.062,0,0,1-4.584-5.506,7.113,7.113,0,0,1,6.085.86" transform="translate(-7352.042 3390.408)" fill="#96d9c9"/>
    <path id="path216" d="M801.221-1515.233a13.815,13.815,0,0,1,12.634-.362,14.68,14.68,0,0,1-7.079,10.807,13.815,13.815,0,0,1-12.634.365,14.688,14.688,0,0,1,7.079-10.809" transform="translate(-7393.344 3618.588)" fill="#96d9c9"/>
    <path id="path218" d="M806.169-1415.433a13.815,13.815,0,0,1,12.634-.363,14.684,14.684,0,0,1-7.079,10.807,13.814,13.814,0,0,1-12.634.362,14.679,14.679,0,0,1,7.079-10.807" transform="translate(-7397.505 3534.652)" fill="#96d9c9"/>
    <path id="path220" d="M814.329-1269.44a8.994,8.994,0,0,1,8.223-.235,9.56,9.56,0,0,1-4.608,7.034,8.994,8.994,0,0,1-8.223.235,9.559,9.559,0,0,1,4.607-7.035" transform="translate(-7406.447 3411.363)" fill="#96d9c9"/>
    <g id="g222" transform="translate(-6317.657 2212.486)">
      <path id="path224" d="M2572.06-800.7a5.156,5.156,0,0,1,2.475.795,43.973,43.973,0,0,0,4.531-2.052s12.361-6.1,13.016-6.456l8.924-11.227,6.877,3.173s-10.035,11.935-10.671,12.46-18.36,6.742-19.9,7.342c0,0-1.555,1.42-2.559,2.278a10.731,10.731,0,0,1-2.672,1.393,11.269,11.269,0,0,1-2.724.956c-1.351.294-.227-.623-.227-.623s2.393-1.009,2.274-1.191c-.091-.142-1.362.49-2.851.831-.384.087-.763.174-1.111.248-.915.2-1.315-.326-.4-.691a8.88,8.88,0,0,1,1.279-.413,7.626,7.626,0,0,0,1.174-.462,10.04,10.04,0,0,0,1.208-.483c-.039-.032.063-.191-.348-.11a21.982,21.982,0,0,1-2.224.623c-.417.049-1.284.2-1.284.2s-1.534.146-1.545-.068c-.022-.471.923-.731,1.5-.721a5.981,5.981,0,0,1,1.282-.32s1.777-.7,1.674-.967a12.783,12.783,0,0,0-2.26.136c-1.208.083-2.083.083-2.15-.153-.1-.371.862-.511.862-.511s.848-.123,1.125-.186c.323-.074,1.279-.375,1.279-.375s3.274-1.2,3.155-1.441-.66-.748-.89-.746-.644.231-.873.233-.727-.044-.762-.335,1.246-.89,1.246-.89a3.62,3.62,0,0,1,1.564-.248" transform="translate(-2565.304 819.64)" fill="#f8a492"/>
    </g>
    <g id="g226" transform="translate(-6288.166 2206.751)">
      <path id="path228" d="M2750.836-843.024s2.227,2.022,3.153,2.688c.768.553,4.52,2.361,4.52,2.361s3.732-5.714,5.363-8.58c1.979-3.478,3.351-8.647,2.883-8.787a6.851,6.851,0,0,0-4.79.132c-5.773,2.649-11.13,12.187-11.13,12.187" transform="translate(-2750.836 855.713)" fill="#355389"/>
    </g>
    <g id="g230" transform="translate(-6311.188 2233.472)">
      <path id="path232" d="M2608.451-686.676a2.139,2.139,0,0,1-2.444-.939c-.1,1.077,1.531,1.611,2.444.939" transform="translate(-2606.002 687.615)" fill="#fe875e"/>
    </g>
    <path id="path234" d="M699.722-1007.371a20.22,20.22,0,0,0-1.833-9.711c-1.275-2.666-4.432-4.18-7.31-4.182-9.139-.013-10.3,12.115-16.119,16.792-1.778,1.429-3.765,2.592-5.447,4.135-6.211,5.691-3.414,16.227,2.29,21.218,3.958,3.461,10.178,5.43,15.056,2.721a15.358,15.358,0,0,0,5.856-6.335c1.955-3.652,3.214-7.865,4.6-11.759a44.055,44.055,0,0,0,2.9-12.88" transform="translate(-7285.146 3201.699)" fill="#13375b"/>
    <path id="path236" d="M855.169-877.594c-2.855-8.66-6.623-8.524-6.623-8.524l3.045,18.439c1.763-.481,4.058-1.553,5.819-2.052a79.129,79.129,0,0,0-2.241-7.863" transform="translate(-7439.1 3088.037)" fill="#f7cc7f"/>
    <path id="path238" d="M885.706-762.979l-10.436-7.961s-1.05-7.429-2.456-14.018c-1.761.5-3.35,1.878-5.113,2.359l2.654,14.76,13.679,7.058,3.864,4.964.879-5.1-3.069-2.064" transform="translate(-7455.209 3002.957)" fill="#f48c7f"/>
    <path id="path240" d="M987.553-1233.415a17.977,17.977,0,0,1,8.91,2.348,9.786,9.786,0,0,0,1.077.519,12.276,12.276,0,0,0,16.795-11.477v-42.637H971.7a12.277,12.277,0,0,1-11.477-16.795,9.619,9.619,0,0,1,.519-1.079,17.972,17.972,0,0,0,2.348-8.91A18.079,18.079,0,0,0,944.15-1329.5a18.139,18.139,0,0,0-17.212,17.543,18,18,0,0,0,2.215,9.2,9.908,9.908,0,0,1,.513,1.094,12.5,12.5,0,0,1-11.712,17H875.684v97.154a41.5,41.5,0,0,0,41.5,41.495h97.154v-42.5a12.36,12.36,0,0,0-16.873-11.568,9.636,9.636,0,0,0-1.081.515,18,18,0,0,1-9.809,2.276A18.129,18.129,0,0,1,969.5-1214.46a18.079,18.079,0,0,1,18.058-18.954" transform="translate(-7461.924 3460.957)" fill="#50bfa5"/>
    <g id="g242" transform="translate(-6479.972 2174.745)">
      <path id="path244" d="M1642.215-1027.914a17.926,17.926,0,0,1,2.762-8.792,9.989,9.989,0,0,0,.567-1.051,12.276,12.276,0,0,0-10.679-17.312l-42.591-1.992-1.99,42.593a12.277,12.277,0,0,1-17.313,10.678,9.593,9.593,0,0,1-1.052-.568,17.964,17.964,0,0,0-8.792-2.762,18.078,18.078,0,0,0-18.922,18.073,18.14,18.14,0,0,0,16.72,18.013,18.01,18.01,0,0,0,9.295-1.785,9.971,9.971,0,0,1,1.119-.46,12.493,12.493,0,0,1,16.436,12.492l-1.975,42.224,97.049,4.538a41.5,41.5,0,0,0,43.389-39.513l4.535-97.048-42.448-1.984a12.36,12.36,0,0,0-12.344,16.313,10.132,10.132,0,0,0,.464,1.1,18,18,0,0,1,1.816,9.9,18.129,18.129,0,0,1-17.955,16.256,18.077,18.077,0,0,1-18.09-18.922" transform="translate(-1544.204 1057.061)" fill="#c6c6c6"/>
    </g>
    <path id="path246" d="M933.345-1900.334a17.962,17.962,0,0,1-1.9,9.016,9.36,9.36,0,0,0-.464,1.1,12.276,12.276,0,0,0,12.3,16.2l42.584-2.141-2.141-42.584a12.278,12.278,0,0,1,16.2-12.306,9.381,9.381,0,0,1,1.1.464,17.989,17.989,0,0,0,9.018,1.9,18.079,18.079,0,0,0,17.083-19.821,18.138,18.138,0,0,0-18.384-16.309,18,18,0,0,0-9.08,2.675,9.733,9.733,0,0,1-1.068.568,12.493,12.493,0,0,1-17.566-10.843l-2.124-42.218-97.031,4.879a41.5,41.5,0,0,0-39.36,43.527L847.4-1869.2l42.442-2.134a12.36,12.36,0,0,0,10.705-17.432,9.618,9.618,0,0,0-.569-1.053,18.013,18.013,0,0,1-2.765-9.682,18.128,18.128,0,0,1,16.3-17.918,18.078,18.078,0,0,1,19.837,17.083" transform="translate(-7433.985 4037.164)" fill="#17b978"/>
    <g id="g248" transform="translate(-6440.264 2025.926)">
      <path id="path250" d="M1820.787-1905.865a17.984,17.984,0,0,1-8.913-2.348,9.246,9.246,0,0,0-1.077-.519A12.277,12.277,0,0,0,1794-1897.256v42.638h42.64a12.277,12.277,0,0,1,11.475,16.8,9.071,9.071,0,0,1-.52,1.077,17.992,17.992,0,0,0-2.348,8.91,18.079,18.079,0,0,0,18.94,18.058,18.138,18.138,0,0,0,17.21-17.543,17.986,17.986,0,0,0-2.215-9.2,9.579,9.579,0,0,1-.512-1.094,12.493,12.493,0,0,1,11.711-17h42.271v-97.152a41.5,41.5,0,0,0-41.5-41.5H1794v42.494a12.36,12.36,0,0,0,16.872,11.568,9.5,9.5,0,0,0,1.084-.515,17.99,17.99,0,0,1,9.808-2.275,18.126,18.126,0,0,1,17.075,17.175,18.077,18.077,0,0,1-18.056,18.954" transform="translate(-1794.002 1993.267)" fill="#184655"/>
    </g>
    <path id="path252" d="M681.92-259.879s-.644,4.476-1.752,5.92a11.4,11.4,0,0,0-1.5,1.975,5.818,5.818,0,0,0,.2,4.512c.263.574-.018.572.58.759a3.673,3.673,0,0,0,4.411-2.077,10.558,10.558,0,0,0,.865-3.813,13.839,13.839,0,0,1,1.45-6.132l-4.26-1.145" transform="translate(-7295.912 2561.344)" fill="#f7a491"/>
    <path id="path254" d="M819.131-247a42.316,42.316,0,0,1,.075,6.687c-.173.88-1.135,2.688-.694,3.514a2.212,2.212,0,0,0,.946,1.032l11.44.187c.623.008.211-.392-.291-.763a23.054,23.054,0,0,0-4.113-2.281c-.172-.083-.8-.481-1.02-.619a7.912,7.912,0,0,1-1.636-1.448c-.821-.918-.893-5.362-.893-5.362L819.131-247" transform="translate(-7413.744 2550.512)" fill="#f7a491"/>
    <path id="path256" d="M821.447-675.773s1.441,8.194.495,13.567-5.486,55.176-5.486,55.176l-5.045.284s-1.057-20.8-.868-23.7a44.919,44.919,0,0,1,1.686-7.734l-.5-16.8,6.366-22.066,3.354,1.265" transform="translate(-7407.119 2912.192)" fill="#355389"/>
    <path id="path258" d="M711.262-689.766s-3.972,5.994-4.918,10.953.694,20.2-1.125,26.7c-.985,3.516-4.718,8.951-5.285,13.5s-2.794,16.453-2.794,16.453l5.043,1L713.9-650.9l9.193-26.881,2.355-13.844-14.187,1.859" transform="translate(-7311.761 2924.46)" fill="#466eb6"/>
    <path id="path260" d="M765.259-894.516s-5.26-.335-7.34,1.937,4.616,20.256,4.994,23.149-1.929,10.585-1.929,10.585,12.355,2.493,15.886.151c0,0,.378-20.8,0-22.871s-3.531-10.47-4.288-11.3-7.324-1.653-7.324-1.653" transform="translate(-7362.542 3095.114)" fill="#f7cc7f"/>
    <path id="path262" d="M807.02-939.359s-.027.155-.076.417a40.037,40.037,0,0,1-1.748,6.628c-.737,1.4,2.524,5.852,5.663,5.309.934-.163-.79-4.093-.707-4.51.159-.8.374-1.884.594-3,.124-.629.25-1.267.368-1.867.336-1.7.61-3.1.61-3.1l-4.7.119" transform="translate(-7402.552 3132.914)" fill="#f7a491"/>
    <path id="path264" d="M815.994-938.941c.049-.263.076-.418.076-.418l4.7-.119s-.274,1.392-.61,3.1c-.117.6-.242,1.231-.366,1.857a4.41,4.41,0,0,1-2.246-1.13,5.934,5.934,0,0,1-1.7-2.535c.058-.3.106-.555.143-.752" transform="translate(-7411.602 3132.914)" fill="#f47458"/>
    <path id="path266" d="M809.861-1006.211a4.235,4.235,0,0,0-3.607,1.545c-1.389,1.8-2.887,7.372.565,10.4s6.863-.4,7.369-4.035.7-8.041-4.327-7.91" transform="translate(-7402.227 3189.05)" fill="#f7a491"/>
    <path id="path268" d="M860.777-967.222c-.412.8-1.1,1.248-1.545.994s-.465-1.113-.053-1.916,1.1-1.246,1.545-.992.465,1.111.053,1.914" transform="translate(-7447.795 3157.918)" fill="#f7a491"/>
    <path id="path270" d="M799.139-1010.188s-2.962,5.3-5.081,5.542-2.4,3.058-2.4,3.058.757-6.486,2.855-7.736a7.778,7.778,0,0,1,4.622-.865" transform="translate(-7391.258 3192.431)" fill="#13375b"/>
    <path id="path272" d="M682.151-207.992a5.631,5.631,0,0,1-5.528-2.314c-.7,1.365-1.039,3.4-.525,4.527.452.99,1.775.96,2.816,1a2.719,2.719,0,0,0,2.5-1.534,9.148,9.148,0,0,0,.739-1.679" transform="translate(-7293.855 2519.651)" fill="#f47458"/>
    <path id="path274" d="M825.337-199.556a10.342,10.342,0,0,1-6.513-.256,5.277,5.277,0,0,0-.523,2.728c.278.812.673,1,1.022,1,2.763.074,10.122.172,12.23.2a.344.344,0,0,0,.268-.566c-.523-.625-6.258-2.971-6.483-3.109" transform="translate(-7413.609 2510.826)" fill="#f47458"/>
    <path id="path276" d="M798.51-974.558c.172.941-.174,1.8-.774,1.927s-1.226-.538-1.4-1.479.174-1.8.774-1.927,1.226.538,1.4,1.479" transform="translate(-7395.153 3163.675)" fill="#f7a491"/>
    <path id="path278" d="M832-946.158l2.674.121a1.171,1.171,0,0,1-1.285.994c-1.436-.023-1.389-1.115-1.389-1.115" transform="translate(-7425.186 3138.532)" fill="#fff"/>
    <g id="g280" transform="translate(-6368.327 1979.13)">
      <path id="path282" d="M2249.738-2287.65c.335.013,1.248.32,2.581,2.842,1.7,3.22,4.2,12.949,4.2,12.949l-7.436,2.77-.955-2.031-1.572-15.634s3.1-.9,3.187-.9" transform="translate(-2246.551 2287.65)" fill="#dd513a"/>
    </g>
    <g id="g284" transform="translate(-6388.152 1977.727)">
      <path id="path286" d="M2135.015-2296.476a45.557,45.557,0,0,1,9.829,1.4s1.794,15.415-1.615,27.128c-.761,2.622.631,10.871.631,10.871l-22.031-.291s2.611-19.939,1.628-23.159-1.008-14.445-1.008-14.445.152-.022,4.949-.853a49.936,49.936,0,0,1,7.615-.654" transform="translate(-2121.831 2296.476)" fill="#f47458"/>
    </g>
    <g id="g288" transform="translate(-6383.795 2045.742)">
      <path id="path290" d="M2155.5-1868.607s.488,5.627,1.386,7.184-.047,4.2-.094,4.57-1.886.881-4.811.569-2.879-.986-2.64-2.075,1.79-2.492,1.886-3.532a27.254,27.254,0,0,0-.9-4.776l5.171-1.94" transform="translate(-2149.24 1868.607)" fill="#f7a491"/>
    </g>
    <g id="g292" transform="translate(-6388.527 2012.141)">
      <path id="path294" d="M2139.393-2079.639s15.207-.844,18.6,1.213-2.415,12.15-2.415,12.15-10.58-.488-31.306.707c-4.909.283-5.332-12.8-4.416-13.88s19.532-.191,19.532-.191" transform="translate(-2119.474 2079.984)" fill="#e0973f"/>
    </g>
    <g id="g296" transform="translate(-6383.975 2053.263)">
      <path id="path298" d="M2150.668-1816.049c-3.013-.322-2.639-1.8-2.4-2.925a10.05,10.05,0,0,1,1.533-2.315,5.009,5.009,0,0,0,2.014.979c1.357.4,3.219-.393,4.406-.889a14.521,14.521,0,0,1,.4,3.882c-.045.376-2.946,1.587-5.955,1.267" transform="translate(-2148.112 1821.288)" fill="#dd513a"/>
    </g>
    <g id="g300" transform="translate(-6391.281 2012.294)">
      <path id="path302" d="M2113.672-2067.949c.609,4.6,3.615,27.485,3.615,27.485l-6.979.866s-8.584-29.872-8.143-34.441,3.652-4.955,3.652-4.955,6.246-1.125,7.856,11.045" transform="translate(-2102.149 2079.021)" fill="#f7cc7f"/>
    </g>
    <g id="g304" transform="translate(-6391.205 1980.924)">
      <path id="path306" d="M2106.059-2276.342c2.058-.772,3.066,17.785,3.345,25.424a89.156,89.156,0,0,0,11.587-.116c.745-.056,2.462-.685,3.2-.781a7.388,7.388,0,0,1,1.82-.087,34.369,34.369,0,0,1,4.262,1.92c.4.422,1.494,1.49,1.31,1.949s-2.1-1.284-2.1-1.284l-.934-.524c1.164,1.138,3.384,2.635,3.065,3.181-.312.531-2.313-.988-3.743-2.025,1.227,1.106,2.746,3.084,2.4,3.395-.317.277-2.045-2.014-3.894-2.674-.684-.243-1.367.433-1.907.515a3.892,3.892,0,0,1-1.4.078l-2-.569c-.682.062-.7.466-1.389.611-.8.172-2.11.35-3.127.6-5.865,1.434-7.82,2.1-9.615,2.1-5.435,0-5.752-29.88-.883-31.707" transform="translate(-2102.623 2276.366)" fill="#f7a491"/>
    </g>
    <g id="g308" transform="translate(-6391.828 1979.189)">
      <path id="path310" d="M2098.858-2268.1c-.386-7.824-.328-17.469,4.057-19.113,1.731-.65,4.783,3.253,4.234,19.272a32.959,32.959,0,0,1-8.291-.158" transform="translate(-2098.709 2287.28)" fill="#dd513a"/>
    </g>
    <g id="g312" transform="translate(-6362.593 2050.552)">
      <path id="path314" d="M2288.091-1838.344a3.8,3.8,0,0,0,.482,3.245c1.09,1.29,5.62,2.558,6.217,3.258a1.954,1.954,0,0,1,.548,1.3l-12.72-.35.141-3.841.585-2.761,4.747-.846" transform="translate(-2282.619 1838.344)" fill="#f7a491"/>
    </g>
    <g id="g316" transform="translate(-6363.304 2054.149)">
      <path id="path318" d="M2285.6-1815.424s-3.267,1.324-4.846.54-1.53-1-1.989-.707-.619,3.893-.619,3.893l14.3.42c.995-.023,1.5-.756.691-1.384a11.856,11.856,0,0,0-1.561-.925,44.739,44.739,0,0,0-5.977-1.836" transform="translate(-2278.144 1815.715)" fill="#dd513a"/>
    </g>
    <g id="g320" transform="translate(-6362.347 2012.454)">
      <path id="path322" d="M2288.911-2074.38c.983-2.069,3.219-4.762,7.155-3.14,3.751,1.547,4.757,5.352,3.574,9.244s-8.977,26.782-9.249,29.93l-6.223.042s1.132-18.125,1.41-22.505a42.459,42.459,0,0,1,3.334-13.571" transform="translate(-2284.167 2078.017)" fill="#f7cc7f"/>
    </g>
    <g id="g324" transform="translate(-6388.006 1995.008)">
      <path id="path326" d="M2163.256-2187.766h-20.8a1.361,1.361,0,0,0-1.255.845l-6.4,15.672h-11.469a.58.58,0,0,0-.578.582.58.58,0,0,0,.578.582h32.639a2.273,2.273,0,0,0,2.075-1.348l6.45-14.415a1.361,1.361,0,0,0-1.236-1.919" transform="translate(-2122.751 2187.766)"/>
    </g>
    <g id="g328" transform="translate(-6360.957 2002.62)">
      <path id="path330" d="M2295.166-2138.367a1.222,1.222,0,0,1-1.366,1.051,1.226,1.226,0,0,1-.86-1.5,1.225,1.225,0,0,1,1.37-1.051,1.226,1.226,0,0,1,.855,1.5" transform="translate(-2292.912 2139.884)" fill="#fff"/>
    </g>
    <g id="g332" transform="translate(-6381.6 1957.307)">
      <path id="path334" d="M2174.629-2423.349a16.023,16.023,0,0,1-1.84-.735,9.325,9.325,0,0,0-2.1-.791,5.069,5.069,0,0,0-4.258,1.133c-1.37,1.491-3.808.27-3.317,8.064.556,8.823,5.462,7.855,5.58,7.7s4.374-5.645,4.374-5.645,1.488,3.257,1.488,3.137,7.6-10.333.071-12.869" transform="translate(-2163.052 2424.942)" fill="#0e2e35"/>
    </g>
    <g id="g336" transform="translate(-6378.787 1969.963)">
      <path id="path338" d="M2185.788-2340.359l.423,3.152s.949,4.542-.27,5.418-5.192-5.546-5.192-5.546l.421-7.99,4.618,4.966" transform="translate(-2180.75 2345.325)" fill="#f7a491"/>
    </g>
    <g id="g340" transform="translate(-6378.503 1969.963)">
      <path id="path342" d="M2182.533-2342.736a9.061,9.061,0,0,0,5.114,5.051l-.359-2.674-4.618-4.966-.137,2.589" transform="translate(-2182.533 2345.325)" fill="#f47458"/>
    </g>
    <g id="g344" transform="translate(-6379.328 1961.216)">
      <path id="path346" d="M2182.671-2400.295a4.2,4.2,0,0,1,4.841,4.252,31.092,31.092,0,0,1-.354,4.042c-.56,3.639-3.046,6.844-4.686,6.558s-5.773-3.426-5.044-8.6c.448-3.2,2.531-5.811,5.244-6.249" transform="translate(-2177.342 2400.348)" fill="#f7a491"/>
    </g>
    <g id="g348" transform="translate(-6380.49 1966.465)">
      <path id="path350" d="M2172.419-2365.659a1.354,1.354,0,0,1-1.431,1.242,1.354,1.354,0,0,1-.929-1.653,1.352,1.352,0,0,1,1.43-1.245,1.357,1.357,0,0,1,.93,1.656" transform="translate(-2170.032 2367.33)" fill="#f7a491"/>
    </g>
    <g id="g352" transform="translate(-6379.662 1960.009)">
      <path id="path354" d="M2175.867-2401.467s1.987.493,2.722-.782,3.372-4.032,6.719-2.891-2.945-2.778-3.212-2.778-3.482-.021-3.482-.021-2.478,2.038-2.567,2.261-.805,2.666-.805,2.666l.627,1.545" transform="translate(-2175.24 2407.938)" fill="#0e2e35"/>
    </g>
    <g id="g356" transform="translate(-6375.416 1971.807)">
      <path id="path358" d="M2201.971-2333.719l3.612.69a1.609,1.609,0,0,1-1.941,1.1c-1.948-.314-1.67-1.793-1.67-1.793" transform="translate(-2201.958 2333.719)" fill="#fff"/>
    </g>
    <path id="path360" d="M1817.689-762.961a3.714,3.714,0,0,0,.392.954,36.142,36.142,0,0,0,3.76,5l2.035-4.58s-.333-1.439-.907-3.495c-1.963.513-3.834.81-5.28,2.117" transform="translate(-8254.188 2986.237)" fill="#f8a492"/>
    <path id="path362" d="M1804.213-861.469s-11.339,4.883-11.706,4.79c-.235-.061-4.65-7.45-4.7-14.4-.021-3.209,3.313-7.071,7.03-6.305,1.874.384,1.844.905,4.614,4.93s4.76,10.985,4.76,10.985" transform="translate(-8229.057 3080.773)" fill="#13375b"/>
    <path id="path364" d="M1947.874-226.039l-.269,4.461a24.173,24.173,0,0,0-.49,2.478c0,1.931,9.169-1.64,7.115-2.5-.187-.076-1.161-.661-1.223-1.318-.093-1.013-.333-3.063-.333-3.063l-4.8-.061" transform="translate(-8363.041 2532.884)" fill="#f7a491"/>
    <path id="path366" d="M1952.49-198.619s-2.153.589-3.255.738-2.556-1.1-3.336-.759c-.858.369-.825,3.7-.825,3.7s11.543.947,14.79-.032c1.287-.39-2.974-2.268-7.374-3.643" transform="translate(-8361.323 2509.889)" fill="#dd513a"/>
    <path id="path368" d="M1829.888-226.039l-.271,4.461a24.721,24.721,0,0,0-.488,2.478c0,1.931,9.169-1.64,7.113-2.5-.184-.076-1.448-1.1-1.509-1.757-.1-1.011-.045-2.624-.045-2.624l-4.8-.061" transform="translate(-8263.809 2532.884)" fill="#f7a491"/>
    <path id="path370" d="M1834.146-198.619s-2.153.589-3.255.738-2.556-1.1-3.336-.759c-.858.369-.892,3.7-.892,3.7s11.6,1.1,14.857-.032c1.265-.443-2.974-2.268-7.374-3.643" transform="translate(-8261.734 2509.889)" fill="#dd513a"/>
    <path id="path372" d="M1851.529-921.208l8.075-11.314c.034-.1.108-.3.22-.61.407-1.123,1.253-3.459,1.99-5.782l.006-.025c.233-.812.723-2.228,1.2-3.6.528-1.524,1.182-3.414,1.206-3.737-.019-.055-.057-.155-.108-.286a26.012,26.012,0,0,1-.839-3.393c-.089-.507-.18-1.74.424-1.74.945,0,.5,1.231.933,2a19.756,19.756,0,0,0,.655-2.562l.159-2.406c.03-.18-.163-1.507.5-1.507h.032c.6.044.583,1.454.831,3.841.078-.276.157-.606.216-.909a8.817,8.817,0,0,1,.2-1.259c-.119-.666-.049-1.715.659-1.615.354.049.324,1.513.324,1.513,0,.2-.023,1.746-.013,2.054.072-.519.356-2.734.911-2.734.46,0,.5.6.488,1.068,0,.278-.295,2.677-.309,2.957.216-.365.472-2.478.689-2.478.9,0,.572,3.005.242,3.788a3.832,3.832,0,0,0-.1.42,7.345,7.345,0,0,1-.769,2.236c-.564.964-1.342,2.5-1.46,2.734-.087.479-.358,2.2-.7,4.37-.146.926-.305,1.944-.47,3l-.009,0c-.032.229-.2.954-.839,3.673a32.553,32.553,0,0,1-1,3.951c-.379.672-9.086,12.494-9.457,13l-.218.3-3.667-4.936" transform="translate(-8282.648 3146.953)" fill="#f7a491"/>
    <path id="path374" d="M1936.376-911.421s-.655-1.677-1.821-1.681a1.339,1.339,0,0,1,1.21.208,2.307,2.307,0,0,1,.61,1.473" transform="translate(-8352.477 3110.783)" fill="#f47458"/>
    <path id="path376" d="M1833.756-924.611l-1.041,6.573s3.961,3.181,6.269,2.509c1.937-.562.61-3.094.61-3.094s-1.032-3.51-.717-5.349-5.123-.638-5.123-.638" transform="translate(-8266.826 3120.735)" fill="#f7a491"/>
    <path id="path378" d="M1838.943-922.618a16.163,16.163,0,0,0,4.483,1.265,8.771,8.771,0,0,1-.106-2.613c.146-.848-.935-1.049-2.138-1.019-1.579.134-2.984.382-2.984.382l-.2,1.263a3.261,3.261,0,0,0,.947.723" transform="translate(-8271.267 3120.728)" fill="#fe875e"/>
    <path id="path380" d="M1807.753-988.974c-.163,0,1.566,7.344,4.243,8.607s6.666.606,7.414-1.373c.829-2.187-2.191-9.68-5.956-10.631s-5.7,3.4-5.7,3.4" transform="translate(-8245.821 3177.514)" fill="#f7a491"/>
    <path id="path382" d="M1793.583-1014.566a8.442,8.442,0,0,0-3.448,3.811c-1,.477-2.217,1.5-2.8,4.281-.716,3.41,1.831,6.04,4.531,6.831s3.118,2.577,3.118,2.577l.307-1.922a7.641,7.641,0,0,0-1.5-2.514c-.9-.837.428-2.058.545-3.054.091-.767-.475-2.257-.352-3.516,0,0,1.5-2.274,2.98-2.836,2.522-.958-.634-5.239-3.376-3.658" transform="translate(-8228.556 3196.358)" fill="#13375b"/>
    <path id="path384" d="M1823.354-948.224c.35.848.205,1.691-.32,1.882s-1.235-.343-1.585-1.191-.208-1.691.32-1.882,1.236.343,1.585,1.191" transform="translate(-8257.188 3141.304)" fill="#f7a491"/>
    <path id="path386" d="M1897.155-772.131l15.576-2.539s-1.772-4.462-2.406-4.462-11.778,4.866-11.778,4.866l-.886,1.778-.507.356" transform="translate(-8321.021 2998.056)" fill="#f8a492"/>
    <path id="path388" d="M1832.918-671.673s-1.554,7.511-.922,13.208.685,25.927.685,25.927l-2.418,32.373,5.733.125s6.8-32.358,6.672-31.527,2.281-22.782,2.281-22.782l-8.1-18.037-3.925.712" transform="translate(-8264.763 2908.278)" fill="#184655"/>
    <path id="path390" d="M1854.5-683.333s-1.013,6.763.252,9.731,10.862,32.074,10.989,34.445,3.317,28.6,3.317,28.6l6.666-.186,1.443-29.164-3.02-36.654-2.931-9.268-16.716,2.492" transform="translate(-8284.822 2919.582)" fill="#13375b"/>
    <path id="path392" d="M1832.716-892.475a5.988,5.988,0,0,0,3.177.954,10.531,10.531,0,0,0,3.7-1.539l-.3-1.022s-3.965-.579-4.065-.515-2.511,2.122-2.511,2.122" transform="translate(-8266.826 3095.171)" fill="#f7a491"/>
    <path id="path394" d="M1942.942-809.679s5.892,5.562,8.552,4.612,3.76-4.194-2.73-8.942c-5.807-4.25-5.822,4.33-5.822,4.33" transform="translate(-8359.53 3028.384)" fill="#f8a492"/>
    <path id="path396" d="M1825.136-862.012c-.875-4.76-7.219-19.578-7.725-22.307-.246-1.327-3.669-1.356-6.926-1.183-3.442.182-6.863.617-6.863.617s-3.048.5-4.387,1.757-1.7,4.731.229,11.326c1.522,5.208,3.408,8.067,4.343,11.858.189,1.272.35,2.526.566,3.993.341,5.672,0,13.162,0,13.162s16.589,3.442,22.795-1.78c0,0-1.13-12.564-2.026-17.443" transform="translate(-8237.731 3087.581)" fill="#355389"/>
    <path id="path398" d="M1896.464-871.246s-6.509,5.373-6.888,5.373c-.244,0-9.29-6.653-11.377-12.119-1.153-3.022,1.267-6.4,4.031-6.392,1.918.008,2.77.5,6.568,3.7s7.666,9.434,7.666,9.434" transform="translate(-8304.831 3086.578)" fill="#466eb6"/>
    <g id="g400" transform="translate(-6525.162 1968.451)">
      <path id="path402" d="M1262.2-2347.8c1.067-2.566,2.152-5.139,4.92-6.438a6.19,6.19,0,0,1,6.57.839c5.64,4.24.725,8.912,7.145,16.955,1.995,2.5,4.408,4.516,5.6,7.443,1.672,4.1-.32,6.068-3.514,8.029-15.278,9.393-23.287-9.891-23-14.3.214-3.281,1.589-10.873,2.276-12.526" transform="translate(-1259.919 2354.834)" fill="#13375b"/>
    </g>
    <g id="g404" transform="translate(-6538.974 1992.691)">
      <path id="path406" d="M1173.27-2169.573c.644-.1,2.209-1.222,2.761-1.325.428-.077,1.354-.219,1.748-.277.483-1.8,2.937-11.643,3.212-14.527.3-3.123,2.507-16.639,2.507-16.639l5.721,1.039s-2.376,10.4-3.033,15.44c-.564,4.33-5.315,14.066-5.919,15.092,0,.026,0,.049,0,.075-.092,1.529-.828,1.02-.828,1.02l-1.2.305s-4.233.408-4.51.509-1.1-.612-.46-.713" transform="translate(-1173.03 2202.342)" fill="#f7a491"/>
    </g>
    <g id="g408" transform="translate(-6529.861 1984.79)">
      <path id="path410" d="M1236.7-2252.046c-4.044,1.37-6.344,12.365-6.344,12.365s6.345,1.772,7.971.844c0,0,1.845-8.179,2.506-7.894l-4.133-5.315" transform="translate(-1230.356 2252.046)" fill="#6a97ce"/>
    </g>
    <path id="path412" d="M1016.09-1876.7a43.284,43.284,0,0,0-1.937,6.786c-.028.184.23,1.07.206,1.261-2.484,3.387-6.054,4.129-9.114,4.345,1.56-1.522,3.85-2.965,3.96-3.448a59.851,59.851,0,0,0,1.581-8.921c1.9.882,3.195.182,5.3-.023" transform="translate(-7570.89 3921.157)" fill="#f7a491"/>
    <path id="path414" d="M1075.422-2106.382l5.465,15.394s-8.783,1.653-12.066,2.255-21.629,1.4-22.093,1.729c-.345.242-4.135,12.5-5.828,19.256a15.889,15.889,0,0,1-6.956-.687c.945-9.671,4.358-24.99,5.45-26.658,1.78-2.715,36.028-11.288,36.028-11.288" transform="translate(-7595.027 4114.327)" fill="#256653"/>
    <path id="path416" d="M1116.49-1834.249a43.179,43.179,0,0,0-.631,7.028c.007.187.427,1.009.439,1.2-1.805,3.794-5.173,5.19-8.138,5.977,1.247-1.789,3.226-3.635,3.244-4.129a59.875,59.875,0,0,0-.12-9.059c2.035.507,3.173-.42,5.206-1.017" transform="translate(-7657.445 3885.452)" fill="#f7a491"/>
    <path id="path418" d="M1154.551-2101.355l2.122,3.62a10.377,10.377,0,0,1-5.2,14.915l-.1.038c-3.112,1.206-20.982,5.432-21.378,5.839-.294.3-1.719,13.052-2.116,20.008a15.908,15.908,0,0,1-6.962.627c-.884-9.675-.4-25.364.358-27.208,1.239-3,33.273-17.84,33.273-17.84" transform="translate(-7667.776 4110.099)" fill="#327f6b"/>
    <path id="path420" d="M1104.838-1789.692c.476-.526,2.223,2.367,2.659,2.984a1.379,1.379,0,0,1,.292,1.325c-.155.286-9.366,5.706-11.613,6.091a1.143,1.143,0,0,1-.672-.178c-.878-.778,3.163-6.517,4.978-7.27a8.722,8.722,0,0,0,4.356-2.952" transform="translate(-7646.698 3848.031)" fill="#13375b"/>
    <path id="path422" d="M1000.424-1833.563c.566-.426,1.74,2.743,2.053,3.429a1.383,1.383,0,0,1,.039,1.359c-.206.252-10.269,3.849-12.548,3.807a1.134,1.134,0,0,1-.627-.3c-.717-.926,4.328-5.807,6.252-6.208a8.7,8.7,0,0,0,4.832-2.083" transform="translate(-7557.456 3884.908)" fill="#13375b"/>
    <g id="g424" transform="translate(-6527.586 1984.527)">
      <path id="path426" d="M1252.569-2253.47h0a1.623,1.623,0,0,1-.408-.083,7.024,7.024,0,0,0-3.671.207c-1.554.655-3.962,6.782-3.819,13.071.058.961.116,1.821.166,2.421.392,4.75,1.755,13.662,1.829,13.709,1.853,1.194,13.037-3.431,13.807-4.447s1.223-13.363,1.6-13.979l.735-10.736c-1.3-.387-8.246-.178-10.234-.163" transform="translate(-1244.665 2253.703)" fill="#9bc1f9"/>
    </g>
    <g id="g428" transform="translate(-6520.923 1978.862)">
      <path id="path430" d="M1292.36-2287.4a28.6,28.6,0,0,0-.576,5.193c.144,1.471-.549,6.207-3.659,6.222s-.59-6.021-.3-7.461a55.071,55.071,0,0,0,.363-5.9l4.17,1.942" transform="translate(-1286.586 2289.34)" fill="#f7a491"/>
    </g>
    <g id="g432" transform="translate(-6519.384 1978.862)">
      <path id="path434" d="M1296.265-2287.1c.048-1.221.064-2.237.064-2.237l4.171,1.942s-.147.762-.3,1.733a3.642,3.642,0,0,1-3.94-1.437" transform="translate(-1296.265 2289.34)" fill="#f47458"/>
    </g>
    <g id="g436" transform="translate(-6520.966 1970.033)">
      <path id="path438" d="M1293.656-2344.39a5.16,5.16,0,0,1,2.194,2.823c.589,1.933-.08,6.918-4.232,8.123s-5.949-2.745-5.094-5.833,2.715-7,7.132-5.114" transform="translate(-1286.315 2344.882)" fill="#f7a491"/>
    </g>
    <g id="g440" transform="translate(-6521.291 1972.854)">
      <path id="path442" d="M1284.286-2325.543c.081.828.539,1.461,1.022,1.416s.808-.758.727-1.589-.539-1.462-1.022-1.414-.808.758-.727,1.587" transform="translate(-1284.274 2327.133)" fill="#f7a491"/>
    </g>
    <g id="g444" transform="translate(-6514.113 1970.273)">
      <path id="path446" d="M1329.429-2343.369s.752,5.562,2.551,6.565,1.045,3.471,1.045,3.471,1.632-5.729.21-7.569a7.926,7.926,0,0,0-3.806-2.468" transform="translate(-1329.429 2343.369)" fill="#13375b"/>
    </g>
    <g id="g448" transform="translate(-6512.991 1976.792)">
      <path id="path450" d="M1336.847-2301.515c-.488.726-.485,1.579,0,1.91s1.282.009,1.77-.717.488-1.58,0-1.908-1.282-.009-1.77.715" transform="translate(-1336.482 2302.359)" fill="#f7a491"/>
    </g>
    <g id="g452" transform="translate(-6518.698 1977.946)">
      <path id="path454" d="M1300.607-2295.1l2.926.737a1.332,1.332,0,0,1-1.648.826c-1.581-.349-1.278-1.562-1.278-1.562" transform="translate(-1300.584 2295.1)" fill="#fff"/>
    </g>
    <path id="path456" d="M1392.1-2002.468l12.613-.634s-5.176,3.72-5.282,3.72-4.122-1.585-4.3-1.585-3.033-1.5-3.033-1.5" transform="translate(-7896.253 4027.464)" fill="#50bfa5"/>
    <g id="g458" transform="translate(-6257.734 2307.027)">
      <path id="path460" d="M2948.384-224.892l.25,4.383c.09.555.448,1.929.448,2.433,0,1.9-8.416-1.611-6.53-2.45.169-.076,1.063-.653,1.121-1.3.087-1,.306-3.007.306-3.007l4.4-.061" transform="translate(-2942.277 224.892)" fill="#f7a491"/>
    </g>
    <g id="g462" transform="translate(-6264.521 2311.333)">
      <path id="path464" d="M2906.559-197.721s1.978.578,2.989.725,2.344-1.076,3.061-.746c.79.363.758,3.631.758,3.631s-10.6.93-13.575-.032c-1.18-.381,2.729-2.228,6.768-3.578" transform="translate(-2899.577 197.799)" fill="#f7cc7f"/>
    </g>
    <g id="g466" transform="translate(-6243.723 2306.8)">
      <path id="path468" d="M3036.531-226.319l.252,4.383c.09.555.447,1.929.447,2.433,0,1.9-8.416-1.611-6.531-2.45.171-.076,1.331-1.081,1.388-1.727.087-.994.042-2.577.042-2.577l4.4-.061" transform="translate(-3030.423 226.319)" fill="#f7a491"/>
    </g>
    <g id="g470" transform="translate(-6250.418 2311.069)">
      <path id="path472" d="M2995.294-199.384a29.866,29.866,0,0,0,2.988.725c1.011.146,2.345-1.074,3.062-.746.786.364.819,3.633.819,3.633s-10.521.432-13.637-.032c-1.227-.182,2.729-2.228,6.769-3.58" transform="translate(-2988.298 199.461)" fill="#f7cc7f"/>
    </g>
    <g id="g474" transform="translate(-6251.149 2236.612)">
      <path id="path476" d="M2994.741-667.167s1.426,7.38.844,12.977-.626,25.474-.626,25.474l2.681,31.794-5.727.134s-6.239-31.79-6.125-30.974-2.091-22.384-2.091-22.384l7.437-17.721,3.606.7" transform="translate(-2983.698 667.866)" fill="#355389"/>
    </g>
    <g id="g478" transform="translate(-6258.62 2232.547)">
      <path id="path480" d="M2953.218-693.438s6.464,6.805,4.06,14.239c-.965,2.986-9.971,31.512-10.088,33.843s-3.044,28.1-3.044,28.1l-6.118-.185-1.325-28.653,1.749-38.606,3.714-6.511,11.052-2.23" transform="translate(-2936.703 693.438)" fill="#466eb6"/>
    </g>
    <g id="g482" transform="translate(-6281.575 2201.362)">
      <path id="path484" d="M2792.537-880.584a56.752,56.752,0,0,1,6.721-5.72,21.964,21.964,0,0,1,3.859-2.728c1.648-.568,4.466-2.081,8.546,4.1,2.917,4.423,21.334,27.324,24.355,28.094l-19.74,9.444c-.541-4.51-10.3-13.033-11.7-14.622-3.141-3.552-14.047-16.33-12.043-18.566" transform="translate(-2792.293 889.616)" fill="#f47458"/>
    </g>
    <g id="g486" transform="translate(-6283.499 2200.799)">
      <path id="path488" d="M2783.284-893.156l6.147,3.6s.175,5.25-1.836,6.613c-1.689,1.144-2.971-1.6-2.971-1.6s-2.287-3.169-4.023-4.154,2.683-4.455,2.683-4.455" transform="translate(-2780.197 893.156)" fill="#f7a491"/>
    </g>
    <g id="g490" transform="translate(-6283.498 2200.799)">
      <path id="path492" d="M2784.315-890.849a12.751,12.751,0,0,1-1.6,3.983,9.911,9.911,0,0,0-2.116-1.838c-.8-.456-.29-1.439.49-2.367,1.1-1.149,2.193-2.088,2.193-2.088l1.18.691a5.419,5.419,0,0,1-.151,1.619" transform="translate(-2780.198 893.159)" fill="#f47458"/>
    </g>
    <g id="g494" transform="translate(-6290.365 2191.508)">
      <path id="path496" d="M2743.751-951.337c.1-.127,5.158,6.166,4.535,9.116s-3.68,5.644-5.8,4.9c-2.35-.82-6.719-8.228-5.153-11.825s6.42-2.2,6.42-2.2" transform="translate(-2737 951.605)" fill="#f7a491"/>
    </g>
    <g id="g498" transform="translate(-6291.819 2188.71)">
      <path id="path500" d="M2730.522-968.128a9.569,9.569,0,0,1,8.486-.172c3.3,1.727,4.053,6.078,3.018,8.732s.151,4.152.151,4.152l-1.754-1.022a8.383,8.383,0,0,1-1.156-2.87c-.132-1.274-1.991-1.047-2.894-1.626-.7-.445-1.592-1.888-2.72-2.639,0,0-2.842-.347-4.241.437-2.385,1.337-2.046-3.239,1.11-4.994" transform="translate(-2727.854 969.212)" fill="#13375b"/>
    </g>
    <g id="g502" transform="translate(-6281.88 2196.356)">
      <path id="path504" d="M2790.376-919.412c-.017.943.432,1.715,1,1.725s1.039-.748,1.055-1.693-.432-1.717-1-1.725-1.036.748-1.055,1.693" transform="translate(-2790.375 921.106)" fill="#f7a491"/>
    </g>
    <g id="g506" transform="translate(-6287.058 2201.058)">
      <path id="path508" d="M2757.8-889.531l2.678-2a1.479,1.479,0,0,1-.445,2c-1.4,1.115-2.233,0-2.233,0" transform="translate(-2757.804 891.532)" fill="#fff"/>
    </g>
    <g id="g510" transform="translate(-6301.466 2212.96)">
      <path id="path512" d="M2674.853-786.749c.672-.979.962-2.393,1.891-3.472a8.19,8.19,0,0,1,1.371-1.176c4.458-2.609,16.074-9.334,16.526-9.856.536-.619,8.461-13.789,8.461-13.789l-7.119-1.613-6.958,12.287c-.581.46-11.627,8.624-11.627,8.624s-2.195,1.715-3.4,2.518a9.551,9.551,0,0,1-1.707.763,10.9,10.9,0,0,0-2.133,1.06c-.291.256-.872.8-1.216,1.134s-.762.71-.922.909a2.569,2.569,0,0,1-.629.4.41.41,0,0,0,.067.761,1.79,1.79,0,0,0,1.078-.248c.8-.377,1.777-1.39,1.828-1.267s-.939,2.3-1.038,2.554a29.668,29.668,0,0,0-1.295,3.353c-.057.566.282.7.536.49.217-.178,2.049-3.561,2.049-3.561s.237-.43.327-.184-1.566,3.321-1.729,3.825-.031.918.435.742c.57-.216,2.136-3.605,2.136-3.605s.2-.422.341-.276-1.312,2.739-1.329,3.037a.39.39,0,0,0,.646.343,18.328,18.328,0,0,0,1.831-3.332s.172-.2.223-.059-1.027,2.44-.945,2.774a.269.269,0,0,0,.321.225c.564,0,1.31-2.38,1.978-3.359" transform="translate(-2667.164 816.654)" fill="#f8a492"/>
    </g>
    <g id="g514" transform="translate(-6276.625 2201.215)">
      <path id="path516" d="M2832.583-870.223s-2.318-.738-3.8-1.42c-.994-.456-5.34-2.617-5.34-2.617s1.874-7.9,3.138-10.744c4.648-10.426,9.927-3.234,10.645-1.558,1.6,3.747-4.639,16.339-4.639,16.339" transform="translate(-2823.438 890.54)" fill="#355389"/>
    </g>
    <path id="path518" d="M1862.142-943.227l2.206-1.651a1.219,1.219,0,0,1-.364,1.647c-1.157.92-1.842,0-1.842,0" transform="translate(-8291.575 3137.455)" fill="#fff"/>
    <g id="g520" transform="translate(-6684.195 2314.788)">
      <path id="path522" d="M773.253-176.066H260.621a1.351,1.351,0,0,0-1.16,1.481,1.348,1.348,0,0,0,1.16,1.479H773.253a1.348,1.348,0,0,0,1.16-1.479,1.35,1.35,0,0,0-1.16-1.481" transform="translate(-259.461 176.066)" fill="#184655"/>
    </g>
    <g id="g524" transform="translate(-6511.659 1992.276)">
      <path id="path526" d="M1365.27-2172.876c-.052-.133-.17-.135-.288-.14a29.549,29.549,0,0,1-3.46-.258,2.659,2.659,0,0,1-.559-.142,1.45,1.45,0,0,0-.957-.036,1.84,1.84,0,0,1-.531.056c-.583,0-2.243-.565-3.094-.716a.5.5,0,0,1-.4-.372c-.839-3.32-2.638-10.767-2.871-13.216-.3-3.131-2.462-17.25-2.462-17.25l-5.786,1.613s2.38,10.423,3.04,15.476c.507,3.9,4.408,12.184,5.632,14.564a2.442,2.442,0,0,0,2.247,1.86.712.712,0,0,1,.458.245,3.224,3.224,0,0,0,.729.634,1.691,1.691,0,0,1,.5.5c.245.359.467.733.684,1.109.146.25.3.327.51.269a.454.454,0,0,0,.336-.512,2.307,2.307,0,0,0-.346-1.14.619.619,0,0,1,.045-.826,2.673,2.673,0,0,1,.434-.484.752.752,0,0,1,.594-.215,9.624,9.624,0,0,0,1.26.234l.351.071.191.041c.028.009.645.075.856.075.17,0,.443.013.675.024a3.723,3.723,0,0,0,.675-.1.815.815,0,0,0,.54-.215c.062-.058.123-.12.09-.217a.207.207,0,0,0-.187-.14,8.572,8.572,0,0,1-.849-.144c.213,0,.882-.015,1.095-.021a1,1,0,0,0,.735-.323c.08-.084.17-.168.116-.3" transform="translate(-1344.862 2204.95)" fill="#f7a491"/>
    </g>
    <g id="g528" transform="translate(-6514.644 1984.883)">
      <path id="path530" d="M1331.352-2251.449c2.855-.519,5.211,12.258,5.211,12.258s-6.345,1.77-7.97.842c0,0-1.845-8.179-2.506-7.894l5.266-5.207" transform="translate(-1326.086 2251.465)" fill="#9bc1f9"/>
    </g>
    <path id="path532" d="M783.585-848.487c.189-.543-2.445-.979-2.585-1.526s3.325-.591,3.449-1.073c.229-.886-3.8-.187-3.719-.6s4.2-1.34,3.751-2.052-4.169,1.405-4.282.924,3.64-1.657,3.573-2.717c-.036-.566-6.159,2.821-6.87,2.514s.764-2.965.2-3.362-2.188,5.4-2.579,5.6-8.663,4.915-11.606,5.665c-.357-.986-1.13-2.315-1.446-3.247-1.652,1.174-2.878,1.766-4.583,2.836,1.235,3.094,2.993,6.483,3.853,6.873,2.62,1.183,12.752-7.221,14.774-8.658s3.183-.973,4.551-1.429,3.329.795,3.518.254" transform="translate(-7362.012 3063.041)" fill="#f7a491"/>
    <path id="path534" d="M744.5-872.54s-2.268-10.014-1.874-12.92,3.847-5.612,6.239-4.61,3.477,14.987,3.477,14.987L744.5-872.54" transform="translate(-7349.982 3091.539)" fill="#f7cc7f"/>
  </g>
</svg>
