<svg xmlns="http://www.w3.org/2000/svg" xmlns:xlink="http://www.w3.org/1999/xlink" width="628" height="394.986" viewBox="0 0 628 394.986">
  <defs>
    <linearGradient id="linear-gradient" x1="0.5" y1="1" x2="0.5" gradientUnits="objectBoundingBox">
      <stop offset="0" stop-color="gray" stop-opacity="0.251"/>
      <stop offset="0.535" stop-color="gray" stop-opacity="0.122"/>
      <stop offset="1" stop-color="gray" stop-opacity="0.102"/>
    </linearGradient>
    <linearGradient id="linear-gradient-3" x1="0.5" y1="1" x2="0.5" y2="0" xlink:href="#linear-gradient"/>
  </defs>
  <g id="Group_3402" data-name="Group 3402" transform="translate(-599 -817)">
    <path id="Path_654" data-name="Path 654" d="M289.624,363.975,284.34,380.2l-7.169-6.038,3.773-12.829Z" transform="translate(772.904 670.081)" fill="#ffb9b9"/>
    <path id="Path_655" data-name="Path 655" d="M400.5,350.661l-1.887,25.282-45.658,1.132-20,45.658-10.943-4.528s12.452-43.017,18.112-56.6,27.169-3.773,27.169-3.773l1.887-3.773Z" transform="translate(729.948 614.342)" fill="#2f2e41"/>
    <path id="Path_656" data-name="Path 656" d="M471.4,484.41s-.755,12.075-1.887,12.83-9.811-.755-9.811-.755-2.608.579-13.207-2.264C434.578,491.025,448,486.3,448,486.3s8.679-5.66,12.452-8.3,6.415,3.019,6.415,3.019C466.116,483.279,471.4,484.41,471.4,484.41Z" transform="translate(588.11 562.853)" fill="#2f2e41"/>
    <path id="Path_669" data-name="Path 669" d="M192.159,384.856H328.3V382.05h61.733v2.806H526.742a9.209,9.209,0,0,1,9.209,9.209V580.489a9.209,9.209,0,0,1-9.209,9.209H192.159a9.209,9.209,0,0,1-9.209-9.209V394.065a9.209,9.209,0,0,1,9.209-9.209Z" transform="translate(677.018 601.579)" fill="#3f3d56"/>
    <rect id="Rectangle_1754" data-name="Rectangle 1754" width="328.309" height="185.2" transform="translate(872.314 1002.71)" opacity="0.1"/>
    <ellipse id="Ellipse_375" data-name="Ellipse 375" cx="3.367" cy="3.367" rx="3.367" ry="3.367" transform="translate(1033.382 990.925)" fill="#17b978"/>
    <rect id="Rectangle_1755" data-name="Rectangle 1755" width="326.236" height="185.131" transform="translate(873.836 1002.617)" fill="#e6e6e6"/>
    <rect id="Rectangle_1756" data-name="Rectangle 1756" width="307.579" height="160.814" transform="translate(883.165 1015.268)" fill="#fff"/>
    <rect id="Rectangle_1757" data-name="Rectangle 1757" width="79.033" height="127.442" transform="translate(1083.762 1031.953)" fill="#e6e6e6"/>
    <rect id="Rectangle_1758" data-name="Rectangle 1758" width="65.861" height="35.08" transform="translate(1004.259 1031.953)" fill="#17b978"/>
    <rect id="Rectangle_1759" data-name="Rectangle 1759" width="65.861" height="37.744" transform="translate(1004.259 1076.802)" fill="#e6e6e6"/>
    <rect id="Rectangle_1760" data-name="Rectangle 1760" width="65.861" height="35.08" transform="translate(1004.259 1124.316)" fill="#e6e6e6"/>
    <rect id="Rectangle_1761" data-name="Rectangle 1761" width="79.033" height="55.539" transform="translate(911.113 1031.953)" fill="#e6e6e6"/>
    <rect id="Rectangle_1762" data-name="Rectangle 1762" width="79.033" height="55.539" transform="translate(911.113 1103.857)" fill="#17b978"/>
    <path id="Path_670" data-name="Path 670" d="M170.291,718.737h32.041v-2.309a.458.458,0,0,1,.458-.458h10.985a.458.458,0,0,1,.458.458h0v2.309H221.1v-2.309a.458.458,0,0,1,.458-.458h10.985a.458.458,0,0,1,.458.458h0v2.309h6.866v-2.309a.458.458,0,0,1,.458-.458h10.985a.458.458,0,0,1,.458.458h0v2.309h6.866v-2.309a.458.458,0,0,1,.458-.458h10.985a.458.458,0,0,1,.458.458h0v2.309H277.4v-2.309a.458.458,0,0,1,.458-.458h10.985a.458.458,0,0,1,.458.458h0v2.309h6.866v-2.309a.458.458,0,0,1,.458-.458h10.985a.458.458,0,0,1,.458.458h0v2.309h6.866v-2.309a.458.458,0,0,1,.458-.458h86.052a.458.458,0,0,1,.458.458h0v2.309h6.866v-2.309a.458.458,0,0,1,.458-.458h10.985a.458.458,0,0,1,.458.458v2.309h6.866v-2.309a.458.458,0,0,1,.458-.458h10.985a.458.458,0,0,1,.458.458h0v2.309H446.3v-2.309a.458.458,0,0,1,.458-.458h10.985a.458.458,0,0,1,.458.458h0v2.309h6.866v-2.309a.458.458,0,0,1,.458-.458h10.985a.458.458,0,0,1,.458.458h0v2.309h6.866v-2.309a.458.458,0,0,1,.458-.458h10.985a.458.458,0,0,1,.458.458h0v2.309H502.6v-2.309a.458.458,0,0,1,.458-.458h10.985a.458.458,0,0,1,.458.458h0v2.309h21.055a10.985,10.985,0,0,1,10.985,10.985v4.967a10.985,10.985,0,0,1-10.985,10.985H170.291a10.986,10.986,0,0,1-10.986-10.985v-4.967a10.986,10.986,0,0,1,10.986-10.986Z" transform="translate(680.458 465.806)" fill="#3f3d56"/>
    <path id="Path_671" data-name="Path 671" d="M317.8,175.45a17.849,17.849,0,0,1,3.494,9.176c.407,4.047,1.592,10.521,5.041,13.924,5.254,5.184,7.005,9.072,7.005,9.072l-1.751,1.944c0-3.888-2.335-4.536-2.335-4.536l.584,4.536c-15.761,14.9-50.787,1.3-50.787,1.3l1.168-11.664c-2.919,1.3-4.086,10.368-4.086,10.368l-4.67-1.3a264.93,264.93,0,0,0,13.426-27.217c5.254-12.96,13.426-9.72,13.426-9.72C307.945,166.184,314.306,170.958,317.8,175.45Z" transform="translate(827.11 688.164)" fill="#2f2e41"/>
    <path id="Path_672" data-name="Path 672" d="M405.48,154.536l-5.66-36.98s6.037-14.716-4.151-16.226-3.4,17.735-3.4,17.735l3.4,35.47Z" transform="translate(684.594 715.754)" fill="#ffb9b9"/>
    <path id="Path_673" data-name="Path 673" d="M397.9,481.873c-1.887,3.019-2.264,18.49-2.264,18.49l-13.207-8.3,3.773-13.584Z" transform="translate(696.705 562.371)" fill="#ffb9b9"/>
    <path id="Path_674" data-name="Path 674" d="M334.069,347.482s16.6,0,25.659,5.283c2.911,1.7,3.756,4.761,3.562,8.135a17.535,17.535,0,0,1-16.52,16.322L321.239,378.8c3.773,10.566-4.905,51.7-4.905,51.7l-13.584-1.887s1.887-13.962,1.509-14.716-3.773-30.187-1.509-45.658,33.206-9.056,33.206-9.056Z" transform="translate(779.022 615.634)" fill="#2f2e41"/>
    <path id="Path_675" data-name="Path 675" d="M418.373,504.6s1.132,10.943.755,12.452-15.848,2.264-29.81-1.887,1.887-8.679,1.887-8.679,9.434-6.415,12.075-8.679,6.415,3.019,6.415,3.019C410.449,504.218,418.373,504.6,418.373,504.6Z" transform="translate(674.719 554.743)" fill="#2f2e41"/>
    <ellipse id="Ellipse_376" data-name="Ellipse 376" cx="13.584" cy="13.584" rx="13.584" ry="13.584" transform="matrix(-0.16, -0.987, 0.987, -0.16, 1118.461, 898.703)" fill="#ffb9b9"/>
    <path id="Path_676" data-name="Path 676" d="M338.1,227c-4.905,7.169,1.132,11.32,1.132,11.32l2.641,19.622s-28.3,2.641-33.206-1.132,5.66-16.226,9.434-17.358,4.528-16.6,4.528-16.6Z" transform="translate(797.259 666.312)" fill="#ffb9b9"/>
    <path id="Path_677" data-name="Path 677" d="M326.836,243.028l14.889-2.329,1.7,16.037s-.755,35.848,0,42.262-12.83,13.584-12.83,13.584-19.622-1.509-23.4-3.4-15.848,1.887-15.848,1.887a10.2,10.2,0,0,1-3.962-.566c-2.264-.755,5.849-54.526,5.849-54.526l7.17-16.6,8.679,3.4,2.641,12.452Z" transform="translate(807.779 659.589)" fill="#17b978"/>
    <path id="Path_678" data-name="Path 678" d="M225.25,130.571l-15.094-19.245L199.591,85.29l14.716-5.66,6.038,21.508,10.565,12.83.377,2.264Z" transform="translate(877.275 784.622)" fill="#17b978"/>
    <path id="Path_679" data-name="Path 679" d="M343.142,315.117l-37.384,1.407s-13.932-7.676-16.593,2.274,17.232,5.4,17.232,5.4l35.626.67Z" transform="translate(806.945 629.371)" fill="#ffb9b9"/>
    <path id="Path_680" data-name="Path 680" d="M291.291,282.838l-17.358,1.132-2.264,11.7s21.131-.377,29.433-.755,0-35.47-1.132-46.036-6.792-7.547-6.792-7.547l-3.4,2.641Z" transform="translate(855.572 658.958)" fill="#17b978"/>
    <path id="Path_681" data-name="Path 681" d="M150.777,191.02l-15.094,6.038,16.6-3.4,1.132-21.508Z" transform="translate(993.067 747.002)" opacity="0.15"/>
    <path id="Path_682" data-name="Path 682" d="M141.155,95.672l24.923.593L169.045,83.8h-27.89Z" transform="translate(974.194 782.925)" fill="#2f2e41"/>
    <path id="Path_626" data-name="Path 626" d="M204.677,607.286c0,14.211-8.449,19.174-18.87,19.174-.243,0-.484,0-.724-.009-.483-.01-.961-.031-1.433-.065-9.406-.665-16.714-5.883-16.714-19.1,0-13.676,17.474-30.934,18.792-32.216h0l.076-.075S204.677,593.073,204.677,607.286Z" transform="translate(437.446 558.735)" fill="#3f3d56"/>
    <path id="Path_627" data-name="Path 627" d="M208.258,624.285l6.9-9.644-6.919,10.7-.018,1.107c-.483-.01-.961-.032-1.433-.066l.744-14.218-.005-.11.013-.021.07-1.343-6.937-10.729,6.957,9.722.017.285.563-10.743-5.938-11.086,6.011,9.2.585-22.271,0-.076v.075l-.1,17.562,5.911-6.963-5.936,8.475-.156,9.619,5.52-9.23-5.544,10.647-.087,5.347,8.013-12.849-8.043,14.715Z" transform="translate(414.307 558.735)" fill="#f2f2f2"/>
    <g id="Group_3399" data-name="Group 3399" transform="translate(843.876 1062.987)" opacity="0.7">
      <path id="Path_628" data-name="Path 628" d="M946.425,353.225V349.8H929.312v15.83a3.337,3.337,0,0,0,3.337,3.337h10.439a3.337,3.337,0,0,0,3.337-3.337v-3.508a4.449,4.449,0,1,0,0-8.9Zm0,7.187v-5.476a2.738,2.738,0,1,1,0,5.476Z" transform="translate(-929.312 -349.802)" fill="url(#linear-gradient)"/>
    </g>
    <path id="Path_629" data-name="Path 629" d="M973.165,362.4a4.062,4.062,0,1,0,4.062,4.062A4.062,4.062,0,0,0,973.165,362.4Zm0,6.562a2.5,2.5,0,1,1,2.5-2.5,2.5,2.5,0,0,1-2.5,2.5Z" transform="translate(-112.727 704.542)" fill="#17b978"/>
    <path id="Path_630" data-name="Path 630" d="M973.165,362.4a4.062,4.062,0,1,0,4.062,4.062A4.062,4.062,0,0,0,973.165,362.4Zm0,6.562a2.5,2.5,0,1,1,2.5-2.5,2.5,2.5,0,0,1-2.5,2.5Z" transform="translate(-112.727 704.542)" opacity="0.1"/>
    <path id="Path_631" data-name="Path 631" d="M782.493,276.563h15.625V291a3.063,3.063,0,0,1-3.063,3.063h-9.5A3.063,3.063,0,0,1,782.493,291Z" transform="translate(62.32 787.257)" fill="#17b978"/>
    <path id="Path_632" data-name="Path 632" d="M966.43,352.455v14.453a3.047,3.047,0,0,1-3.047,3.047h1.563a3.047,3.047,0,0,0,3.047-3.047V352.455Z" transform="translate(-108.804 711.365)" opacity="0.1"/>
    <path id="Path_633" data-name="Path 633" d="M940.477,314.5a.912.912,0,0,0-.69.35c-.2.372.167.791.505,1.046A6.721,6.721,0,0,1,942,317.489a2,2,0,0,1,.094,2.208c-.607.824-2.057,1-2.2,2.015-.09.651.473,1.206,1.043,1.533,1.407.806,3.222,1.021,4.241,2.283a3.288,3.288,0,0,1,2.305-1.583c.94-.214,1.917-.2,2.87-.343a.993.993,0,0,0,.792-.42c.266-.541-.493-1.19-.231-1.732.2-.413.786-.381,1.214-.547a1.581,1.581,0,0,0,.786-1.887,3.552,3.552,0,0,0-1.344-1.745,15.054,15.054,0,0,0-5.413-2.5,13.874,13.874,0,0,0-2.877-.666A14.373,14.373,0,0,0,940.477,314.5Z" transform="translate(-92.58 737.671)" fill="#eee"/>
    <line id="Line_117" data-name="Line 117" x1="32.671" y2="101.782" transform="translate(705.56 1085.01)" fill="none" stroke="#e0e0e0" stroke-miterlimit="10" stroke-width="8"/>
    <g id="Group_3400" data-name="Group 3400" transform="translate(659.119 976.94)" opacity="0.7">
      <path id="Path_634" data-name="Path 634" d="M445.6,297.207c-4.019.233-7.6,3.6-7.6,3.6l-1.731-4.294-.141.046c.846-3.7,18.053-80.018.828-86.6-13.236-5.055-27.275-11.312-38.274-11.077V180.856H414.1v-.643h12.208c2.34-1.672-1.06-2.821-4.861-3.54a3.474,3.474,0,0,0,.407-.575l19.553-35.081s4.5-7.389,1.606-10.923-7.068,9-7.068,9l-16.063,23.131s-16.212-16.9-26.526-25.3a18.053,18.053,0,0,0-3.839-2.9c-1.883-1.274-3.308-1.934-4.01-1.675l-.02.01a18,18,0,0,0-4.8-.652h-1.285v-2.636A20.61,20.61,0,0,0,392.139,117a23.151,23.151,0,0,0,1.835-20.158,1.337,1.337,0,0,0,.541-.187,1.973,1.973,0,0,0,.583-1.884,14.311,14.311,0,0,0-7.264-11.189c-1.628-.89-3.492-1.5-4.692-2.918-1.031-1.216-1.465-2.916-2.713-3.907-1.483-1.178-3.625-.976-5.444-.45a19.808,19.808,0,0,0-5.682,2.681c-1.968,1.348-3.744,3.08-6.01,3.826-1.61.53-3.356.52-4.976,1.018a8.358,8.358,0,0,0-5.377,5.244,10.916,10.916,0,0,0-.46,4.1,23,23,0,0,0-2.308,5.25c-.121.065-.243.13-.363.2l.352-.158a23.126,23.126,0,0,0,6.516,23.589,20.593,20.593,0,0,0,9.88,7.012v3.189a24.294,24.294,0,0,0-7.885,3.229l0,0s-.205.127-.556.363l-.105.071c-2.377,1.613-10.343,7.509-10.074,13.88q-.016.367,0,.737a24.5,24.5,0,0,0-.656,5.618v46.232a22.7,22.7,0,0,0,4.873,14.082c-6.7,1.5-10.977,3.775-10.977,6.319a2.059,2.059,0,0,1,0,.643c0,4.524,13.521,8.192,30.2,8.192,2.017,0,3.986-.054,5.892-.156l18.845,15.256-30.2,48.511s-9.959,7.71-2.249,10.28,23.453,4.5,23.453,4.5,2.57-4.5-.964-6.425-8.353-.964-8.353-.964l.642-3.855s52.367-44.977,41.444-60.4c-2.09-2.95-4.18-5.994-6.287-8.991l8.244.751,1.876,70.606.235-.076c-.471,1.387-3.8,11.856,3.581,10.084,7.9-1.9,22.283-8.586,22.283-8.586S449.621,296.974,445.6,297.207ZM414.1,175.716l-15.421-4.477V158.046l16.761,17.792C414.621,175.756,414.1,175.716,414.1,175.716Z" transform="translate(-341.177 -75.892)" fill="url(#linear-gradient)"/>
    </g>
    <ellipse id="Ellipse_368" data-name="Ellipse 368" cx="22.618" cy="22.618" rx="22.618" ry="22.618" transform="translate(668.177 985.427)"/>
    <path id="Path_635" data-name="Path 635" d="M494.483,284.921l17.261,18.324a3.372,3.372,0,0,0,5.4-.671l19.119-34.3-5.34-1.885L515.217,289S485.729,258.27,481.6,259.789,494.483,284.921,494.483,284.921Z" transform="translate(222.071 774.958)" fill="#17b978"/>
    <line id="Line_118" data-name="Line 118" x1="25.445" y2="65.97" transform="translate(658.124 1123.335)" fill="none" stroke="#bdbdbd" stroke-miterlimit="10" stroke-width="5"/>
    <line id="Line_119" data-name="Line 119" x2="25.445" y2="65.97" transform="translate(696.135 1123.335)" fill="none" stroke="#bdbdbd" stroke-miterlimit="10" stroke-width="5"/>
    <ellipse id="Ellipse_369" data-name="Ellipse 369" cx="29.529" cy="8.011" rx="29.529" ry="8.011" transform="translate(660.323 1115.796)" fill="#b84733"/>
    <ellipse id="Ellipse_370" data-name="Ellipse 370" cx="29.529" cy="8.011" rx="29.529" ry="8.011" transform="translate(660.323 1115.167)" fill="#f55f44"/>
    <line id="Line_120" data-name="Line 120" x2="27.861" y2="8.585" transform="translate(677.427 1137.829)" fill="none" stroke="#bdbdbd" stroke-miterlimit="10" stroke-width="5"/>
    <line id="Line_121" data-name="Line 121" x1="27.861" y2="8.585" transform="translate(674.417 1137.829)" fill="none" stroke="#bdbdbd" stroke-miterlimit="10" stroke-width="5"/>
    <path id="Path_636" data-name="Path 636" d="M238.114,182.016h8.766a17.592,17.592,0,0,1,17.592,17.592V246.1H214.209v-40.18a23.9,23.9,0,0,1,23.9-23.9Z" transform="translate(452.083 852.103)" fill="#17b978"/>
    <path id="Path_637" data-name="Path 637" d="M214.209,386.016h50.263v27.33H236.513a22.3,22.3,0,0,1-22.3-22.3v-5.026Z" transform="translate(452.083 712.188)" fill="#39447a"/>
    <path id="Path_638" data-name="Path 638" d="M366.064,286.206l30.735,29.2h33.927v-4.4l-29.215-8.482L376.52,271.668S365.172,278.679,366.064,286.206Z" transform="translate(300.907 766.773)" opacity="0.05"/>
    <path id="Path_639" data-name="Path 639" d="M366.064,284.206l30.735,29.2h33.927v-4.4l-29.215-8.482L376.52,269.668S365.172,276.679,366.064,284.206Z" transform="translate(300.907 768.145)" fill="#17b978"/>
    <path id="Path_640" data-name="Path 640" d="M572.012,394.908s16.335,1.257,11.937,4.4H572.012Z" transform="translate(159.621 682.248)" fill="#fda57d"/>
    <path id="Path_641" data-name="Path 641" d="M640.012,260.363s4.084-12.252,6.911-8.8-1.571,10.681-1.571,10.681Z" transform="translate(112.982 780.981)" fill="#fda57d"/>
    <path id="Path_642" data-name="Path 642" d="M214.209,386.016v1.466l50.263.1v-1.571Z" transform="translate(452.083 712.188)" opacity="0.05"/>
    <path id="Path_643" data-name="Path 643" d="M480.061,494.476l33.81,3.081,1.834,69.039,12.1-3.941s18.1-78.221.841-84.814-35.921-15.275-47.062-8.2S480.061,494.476,480.061,494.476Z" transform="translate(225.33 632.8)" fill="#39447a"/>
    <path id="Path_644" data-name="Path 644" d="M495.012,486.908s18.534,9.424,21.047,20.105" transform="translate(212.433 619.149)" opacity="0.1"/>
    <path id="Path_645" data-name="Path 645" d="M425.154,504.691l26.388,21.362-29.529,47.435,12.251,3.456s51.205-43.98,40.524-59.059-21.362-32.671-34.556-32.985S425.154,504.691,425.154,504.691Z" transform="translate(262.5 620.529)" fill="#39447a"/>
    <path id="Path_646" data-name="Path 646" d="M414.209,251.016l6.6,11.309,1.571-3.141Z" transform="translate(314.911 804.779)" opacity="0.05"/>
    <path id="Path_647" data-name="Path 647" d="M410.961,766.908s-9.738,7.539-2.2,10.053,22.932,4.4,22.932,4.4,2.513-4.4-.942-6.283-8.168-.942-8.168-.942l.628-3.77Z" transform="translate(273.551 427.109)" fill="#333"/>
    <path id="Path_648" data-name="Path 648" d="M600.257,774.808s-4.278,11.863,3.45,10.009,21.789-8.4,21.789-8.4-.193-5.062-4.123-4.834-7.43,3.52-7.43,3.52l-1.693-4.2Z" transform="translate(141.06 424.365)" fill="#333"/>
    <rect id="Rectangle_1747" data-name="Rectangle 1747" width="12.566" height="18.849" rx="6.283" transform="translate(685.141 1023.124)" fill="#fda57d"/>
    <path id="Path_649" data-name="Path 649" d="M430.295,224.908a6.283,6.283,0,0,0-6.283,6.283v2.135a20.107,20.107,0,0,0,12.566,0v-2.135a6.283,6.283,0,0,0-6.283-6.283Z" transform="translate(261.128 798.844)" opacity="0.05"/>
    <ellipse id="Ellipse_371" data-name="Ellipse 371" cx="20.105" cy="20.105" rx="20.105" ry="20.105" transform="translate(671.318 992.338)" fill="#fda57d"/>
    <path id="Path_650" data-name="Path 650" d="M377.269,137.242s5.026,1.3,7.854-4.417,5.026-8.829,16.65-5.453,13.961,3.787,14.52.6c.382-2.181-3.751-7.479-6.407-10.616a7.437,7.437,0,0,0-5.67-2.443H391.091l-7.854,3.635-5.969,5.193-1.257,7.011Z" transform="translate(294.05 874.288)" opacity="0.05"/>
    <path id="Path_651" data-name="Path 651" d="M377.269,135.242s5.026,1.3,7.854-4.417,5.026-8.829,16.65-5.453,13.961,3.787,14.52.6c.382-2.181-3.751-7.479-6.407-10.616a7.437,7.437,0,0,0-5.67-2.443H391.091l-7.854,3.635-5.969,5.193-1.257,7.011Z" transform="translate(294.05 875.66)"/>
    <ellipse id="Ellipse_372" data-name="Ellipse 372" cx="2.042" cy="4.084" rx="2.042" ry="4.084" transform="translate(671.318 1006.789)" fill="#fda57d"/>
    <path id="Path_652" data-name="Path 652" d="M375.018,105.008c-.466-2.63-.924-5.391-.075-7.924a8.172,8.172,0,0,1,5.258-5.128c1.584-.487,3.291-.477,4.865-.995,2.215-.73,3.952-2.423,5.877-3.741A19.369,19.369,0,0,1,396.5,84.6c1.779-.514,3.873-.712,5.323.44,1.22.97,1.644,2.632,2.653,3.821,1.174,1.383,3,1.983,4.588,2.853a13.993,13.993,0,0,1,7.1,10.941,1.93,1.93,0,0,1-.57,1.842,2.037,2.037,0,0,1-1.146.209c-8.035-.115-16.08-.23-24.082-.968a57.778,57.778,0,0,0-7.477-.424,24.458,24.458,0,0,0-11.009,3.106" transform="translate(296.883 895.357)"/>
    <rect id="Rectangle_1748" data-name="Rectangle 1748" width="48.405" height="20.598" rx="10.299" transform="translate(599 1179.645)" fill="#17b978"/>
    <path id="Path_653" data-name="Path 653" d="M724.686,485.017a.471.471,0,1,0-.455-.471A.471.471,0,0,0,724.686,485.017Z" transform="translate(55.221 621.092)" fill="url(#linear-gradient-3)"/>
    <line id="Line_122" data-name="Line 122" x2="32.671" y2="116.261" transform="translate(849.048 1085.01)" fill="none" stroke="#e0e0e0" stroke-miterlimit="10" stroke-width="8"/>
    <rect id="Rectangle_1749" data-name="Rectangle 1749" width="176.424" height="6.875" transform="translate(705.427 1081.605)" fill="#e0e0e0"/>
    <rect id="Rectangle_1750" data-name="Rectangle 1750" width="28.901" height="4.084" rx="2.042" transform="translate(748.911 1079.984)" fill="#535461"/>
    <g id="Group_3401" data-name="Group 3401" transform="translate(766.503 1034.452)" opacity="0.7">
      <rect id="Rectangle_1751" data-name="Rectangle 1751" width="71.831" height="49.666" rx="24.833" fill="url(#linear-gradient)"/>
    </g>
    <rect id="Rectangle_1752" data-name="Rectangle 1752" width="68.046" height="48.75" rx="24.375" transform="translate(767.784 1035.369)" fill="#3e3f49"/>
    <rect id="Rectangle_1753" data-name="Rectangle 1753" width="68.046" height="48.75" rx="24.375" transform="translate(768.727 1035.369)" fill="#535461"/>
    <ellipse id="Ellipse_373" data-name="Ellipse 373" cx="2.199" cy="2.199" rx="2.199" ry="2.199" transform="translate(803.729 1057.208)" fill="#e0e0e0"/>
  </g>
</svg>
