<svg xmlns="http://www.w3.org/2000/svg" xmlns:xlink="http://www.w3.org/1999/xlink" width="1366" height="768" viewBox="0 0 1366 768">
  <defs>
    <clipPath id="clip-path">
      <rect id="Rectangle_3154" data-name="Rectangle 3154" width="1366" height="768" transform="translate(-5283 -291)" fill="#fff"/>
    </clipPath>
  </defs>
  <g id="Mask_Group_5" data-name="Mask Group 5" transform="translate(5283 291)" clip-path="url(#clip-path)">
    <g id="Group_3474" data-name="Group 3474" transform="matrix(-0.966, 0.259, -0.259, -0.966, -3523.789, 371.838)">
      <path id="Path_683" data-name="Path 683" d="M0,0S106.261,210.788,662.1,229.387s825.583,158.092,915.5,340.982" transform="translate(45.213 302.539)" fill="none" stroke="rgba(23,185,120,0.36)" stroke-width="1"/>
      <path id="Path_683-2" data-name="Path 683" d="M0,0S106.826,211.047,662.693,230.949s825.978,160.032,916.382,343.141" transform="matrix(1, -0.017, 0.017, 1, 39.584, 299.501)" fill="none" stroke="rgba(23,185,120,0.36)" stroke-width="1"/>
      <path id="Path_683-3" data-name="Path 683" d="M0,0S107.383,211.326,663.232,232.53s826.3,161.986,917.192,345.33" transform="matrix(0.999, -0.035, 0.035, 0.999, 34.197, 296.547)" fill="none" stroke="rgba(23,185,120,0.36)" stroke-width="1"/>
      <path id="Path_683-4" data-name="Path 683" d="M0,0S107.929,211.623,663.715,234.128s826.561,163.949,917.923,347.547" transform="translate(29.055 293.672) rotate(-3)" fill="none" stroke="rgba(23,185,120,0.36)" stroke-width="1"/>
      <path id="Path_683-5" data-name="Path 683" d="M0,0S108.465,211.94,664.142,235.743s826.751,165.92,918.578,349.788" transform="matrix(0.998, -0.07, 0.07, 0.998, 24.157, 290.873)" fill="none" stroke="rgba(23,185,120,0.36)" stroke-width="1"/>
      <path id="Path_683-6" data-name="Path 683" d="M0,0S108.989,212.275,664.512,237.372s826.87,167.9,919.153,352.049" transform="matrix(0.996, -0.087, 0.087, 0.996, 19.507, 288.147)" fill="none" stroke="rgba(23,185,120,0.36)" stroke-width="1"/>
      <path id="Path_683-7" data-name="Path 683" d="M0,0S109.5,212.628,664.825,239.012s826.921,169.876,919.649,354.33" transform="matrix(0.995, -0.105, 0.105, 0.995, 15.104, 285.488)" fill="none" stroke="rgba(23,185,120,0.36)" stroke-width="1"/>
      <path id="Path_683-8" data-name="Path 683" d="M0,0S110,213,665.081,240.663s826.9,171.856,920.066,356.626" transform="translate(10.951 282.895) rotate(-7)" fill="none" stroke="rgba(23,185,120,0.36)" stroke-width="1"/>
      <path id="Path_683-9" data-name="Path 683" d="M0,0S110.488,213.386,665.279,242.321s826.815,173.835,920.4,358.936" transform="translate(7.047 280.362) rotate(-8)" fill="none" stroke="rgba(23,185,120,0.36)" stroke-width="1"/>
      <path id="Path_683-10" data-name="Path 683" d="M0,0S110.96,213.791,665.42,243.985s826.658,175.808,920.656,361.256" transform="translate(3.397 277.887) rotate(-9)" fill="none" stroke="rgba(23,185,120,0.36)" stroke-width="1"/>
      <path id="Path_683-11" data-name="Path 683" d="M0,0S111.418,214.212,665.5,245.653s826.433,177.776,920.832,363.584" transform="matrix(0.985, -0.174, 0.174, 0.985, 0, 275.464)" fill="none" stroke="rgba(23,185,120,0.36)" stroke-width="1"/>
    </g>
  </g>
</svg>
